<svg xmlns="http://www.w3.org/2000/svg" xmlns:xlink="http://www.w3.org/1999/xlink" version="1.1" id="Layer_2" x="0px" y="0px" viewBox="0 0 1080 1080" style="enable-background:new 0 0 1080 1080;" xml:space="preserve">
<style type="text/css">
	.st0{fill:#F7F7F7;}
	.st1{fill:#F2F2F2;}
	.st2{fill:#1A87D8;}
	.st3{fill:#2A94F4;}
	.st4{fill:#B0E1FF;}
	.st5{fill:#CCE9FF;}
	.st6{fill:none;stroke:#D3D3D3;stroke-miterlimit:10;stroke-dasharray:12.1401,12.1401;}
	.st7{fill:none;stroke:#FFE9CC;stroke-width:2;stroke-miterlimit:10;}
	.st8{fill:#0A3E5B;}
	.st9{fill:#0B4870;}
	.st10{fill:#FFE3CA;}
	.st11{fill:#145C84;}
	.st12{fill:#F9D7BB;}
	.st13{fill:#2390E2;}
	.st14{fill:#1C88C9;}
	.st15{fill:#072C3D;}
	.st16{fill:#0E538C;}
	.st17{fill:#FCD2B1;}
	.st18{fill:none;stroke:#3CA8F7;stroke-width:4;stroke-linecap:round;stroke-miterlimit:10;}
	.st19{fill:#3CA8F7;}
	.st20{fill:#A4D7F7;}
	.st21{fill:#FFBE55;}
	.st22{fill:#FFE9CC;}
</style>
<g>
	<path class="st0" d="M292.1,269.7c-23.9,10.4-47.6,23.2-64.3,43.2s-25.1,48.7-15,72.8c13.4,32.1,55.8,50.8,56,85.6   c0.1,24.9-22.9,43.9-46.1,53c-23.2,9.1-48.9,12.3-70,25.6c-31.9,20-46.8,58.7-52.9,95.8c-6.3,38.5-3.8,82.4,23.5,110.4   c33.9,34.7,89.9,30.8,137.9,23.4c64-9.9,127.7-21.5,191.5-33.1c139.7-25.5,279.4-50.9,419-76.4c15-2.7,30.6-5.7,42.7-14.9   c24.2-18.2,26.2-55.7,12.2-82.4c-14-26.8-40-45-65.8-60.7c-25.8-15.7-53.1-30.6-72.4-53.9s-28.9-57.7-14.3-84.1   c12.4-22.4,39-34.4,50.6-57.2c15.3-30.1-2.3-68.5-30.1-87.7C766.7,209.7,418.2,214.5,292.1,269.7z"/>
</g>
<path class="st1" d="M1021.3,987.1H58.7c-7.8,0-14.2-6.4-14.2-14.2v-94.3c0-7.8,6.4-14.2,14.2-14.2h962.7c7.8,0,14.2,6.4,14.2,14.2  v94.3C1035.5,980.7,1029.1,987.1,1021.3,987.1z"/>
<g>
	<g>
		<g>
			<path class="st2" d="M953.4,805.7c-9.6-44.7-39.1-84.7-78.9-107c21.3,40.3,46.8,78.3,76,113.3L953.4,805.7z"/>
		</g>
		<g>
			<path class="st3" d="M964.1,822.5c-38-53.1-57-119.4-53-184.6c24.6,60.1,43.2,122.7,55.4,186.6L964.1,822.5z"/>
		</g>
		<g>
			<path class="st2" d="M953.2,824.3c-1.2-32.7-2.3-65.6,2.8-97.9c5.1-32.3,17-64.3,38.9-88.5c3.3,66.9-12.8,134.6-46,192.8     L953.2,824.3z"/>
		</g>
		<g>
			<path class="st4" d="M954.8,827.2c-21.4-61.8-17.9-131.8,9.6-191.1c17.2,62,2,127.8-13.2,190.3L954.8,827.2z"/>
		</g>
		<g>
			<path class="st3" d="M957.6,804.3c5.9-54.2,42.1-104.1,91.7-126.5c-20.1,54.1-54.6,102.7-98.9,139.7L957.6,804.3z"/>
		</g>
	</g>
	<path class="st5" d="M1008.7,794.8l-6.1,105.2c0,5.1-4.1,9.2-9.2,9.2h-73c-5.1,0-9.2-4.1-9.2-9.2l-1.4-23.8l-4.8-81.4   c0-5.1,4.1-9.2,9.2-9.2h85.3c3.3,0,6.3,1.8,7.9,4.4v0C1008.3,791.4,1008.7,793.1,1008.7,794.8z"/>
	<g>
		<path class="st5" d="M1008.7,794.8l-6.1,105.2c0,5.1-4.1,9.2-9.2,9.2h-73c-5.1,0-9.2-4.1-9.2-9.2l-1.4-23.8    c34-9.7,69.1-51.8,97.6-86.2C1008.3,791.4,1008.7,793.1,1008.7,794.8z"/>
	</g>
</g>
<g>
	<g>
		<g>
			<path class="st2" d="M90.2,827.1c-5.7-26.6-23.3-50.5-47.1-63.8c12.7,24,27.9,46.7,45.3,67.6L90.2,827.1z"/>
		</g>
		<g>
			<path class="st5" d="M96.6,837.2C73.9,805.5,62.6,765.9,65,727c14.7,35.9,25.8,73.2,33,111.3L96.6,837.2z"/>
		</g>
		<g>
			<path class="st2" d="M90.1,838.2c-0.7-19.5-1.4-39.1,1.7-58.4c3.1-19.3,10.1-38.3,23.2-52.8c2,39.9-7.7,80.3-27.5,115L90.1,838.2     z"/>
		</g>
		<g>
			<path class="st3" d="M91,840c-12.8-36.8-10.7-78.6,5.7-114c10.2,37,1.2,76.2-7.9,113.5L91,840z"/>
		</g>
		<g>
			<path class="st4" d="M92.7,826.3c3.5-32.3,25.1-62.1,54.7-75.5c-12,32.2-32.6,61.3-59,83.3L92.7,826.3z"/>
		</g>
	</g>
	<path class="st5" d="M123.2,820.7l-3.7,62.8c0,3-2.5,5.5-5.5,5.5H70.5c-3,0-5.5-2.5-5.5-5.5l-0.8-14.2l-2.8-48.6   c0-3,2.5-5.5,5.5-5.5h50.9c2,0,3.7,1.1,4.7,2.7v0C122.9,818.7,123.2,819.6,123.2,820.7z"/>
	<g>
		<path class="st5" d="M123.2,820.7l-3.7,62.8c0,3-2.5,5.5-5.5,5.5H70.5c-3,0-5.5-2.5-5.5-5.5l-0.8-14.2    c20.3-5.8,41.2-30.9,58.2-51.4C122.9,818.7,123.2,819.6,123.2,820.7z"/>
	</g>
</g>
<g>
	<circle class="st6" cx="392.7" cy="264.5" r="123.7"/>
</g>
<path class="st7" d="M716.3,606H369c-6.6,0-12-5.4-12-12V482.9c0-6.6,5.4-12,12-12h347.3c6.6,0,12,5.4,12,12V594  C728.3,600.6,722.9,606,716.3,606z"/>
<path class="st7" d="M684.2,337.1H347.8c-6.4,0-11.6-5.2-11.6-11.6V217.9c0-6.4,5.2-11.6,11.6-11.6h336.3c6.4,0,11.6,5.2,11.6,11.6  v107.6C695.8,331.8,690.6,337.1,684.2,337.1z"/>
<path class="st8" d="M861.7,566.9c13.7,47.6,32.9,144.5,32.9,144.5l-32.9,163.7H837c0,0,2.7-156.4,8.2-162.8  c-11.9-17.4-28.4-97-28.4-97l22-59.5L861.7,566.9z"/>
<path class="st9" d="M845.2,567.8l-47.6,327.4h-26.5c0,0-8.2-143.6,0-163.7c8.2-20.1-11.9-175.6-11.9-175.6L845.2,567.8z"/>
<path class="st8" d="M791.2,918.6c9.1,3.2,39.6,16,44.3,17.8c3.1,3.7,4.7,11,4.7,11s-52.1-1.8-57.2-1.8c-5.5,0-16.5,0-16.5,0  l4.7-33.4C775.2,912.6,791.2,918.6,791.2,918.6z"/>
<path class="st8" d="M854.7,898.5c8,5.3,34.4,25.4,38.5,28.3c2.1,4.3,1.8,11.8,1.8,11.8s-50-14.8-54.9-16.1  c-5.3-1.4-15.9-4.1-15.9-4.1l12.9-31.2C840.7,888.7,854.7,898.5,854.7,898.5z"/>
<polygon class="st10" points="794,888.8 792.2,914.4 800.4,925.4 779.4,925.4 772,915.3 772,887 "/>
<polygon class="st10" points="860,868.8 855.2,894 862.1,905.8 841.2,903.5 835.1,892.6 838.4,864.5 "/>
<rect x="763.4" y="881" class="st11" width="40.2" height="18.3"/>
<rect x="828.3" y="863.7" transform="matrix(0.9936 0.1126 -0.1126 0.9936 103.6948 -89.9977)" class="st11" width="40.2" height="18.3"/>
<path class="st12" d="M855.7,438.6C864,467,863,489,880,494s25-5,28-7s10-34,10-34l-16-20L855.7,438.6z"/>
<polygon class="st13" points="826.7,336.2 859,362.7 875.6,419.8 856.5,441.2 "/>
<path class="st14" d="M848.1,435.9c0,0,4.7,8.8,7.8,6.9s38.1-27.5,38.1-27.5l-5.6-7L848.1,435.9z"/>
<polygon class="st12" points="861,437 869,420 876,414 876,429 "/>
<rect x="191" y="861" class="st15" width="135" height="31"/>
<polygon class="st3" points="335.8,856 188.3,851 179,723 347,723 "/>
<g>
	<path class="st10" d="M136.5,861.4c23.7,1,107.8,15.9,149.5,23.6c14.5,2.6,23.8,4.4,23.8,4.4s10.4,3.8,23.1,8.3   c11.7,4.2,25.3,9,34.7,12.1c3.6,1.2,3.3,6.3-0.3,7.2c-8.9,2.1-28.9,1.8-43.4-3.2c-11.9,5.3-17.5,5.6-23.3,1.3   c-1.9-1.4-4.1-2.6-6.4-3.5c-4.2-1.7-8.9-2.8-13.4-3.4c-9.8-1.3-18.5-0.6-18.5-0.6c-33.8,6.5-111,28.4-157,1.3   S104.6,860.1,136.5,861.4z"/>
	<path class="st8" d="M136.5,861.4c23.7,1,107.8,15.9,149.5,23.6l-5.3,23.3c-9.8-1.3-18.5-0.6-18.5-0.6c-33.8,6.5-111,28.4-157,1.3   S104.6,860.1,136.5,861.4z"/>
	<path class="st3" d="M310.9,904.2c4.7,1,11.5-4.6,22-6.5c11.7,4.2,25.3,9,34.7,12.1c3.6,1.2,3.3,6.3-0.3,7.2   c-8.9,2.1-28.9,1.8-43.4-3.2c-11.9,5.3-17.5,5.6-23.3,1.3c-1.9-1.4-4.1-2.6-6.4-3.5C296.3,905.8,305.4,904.9,310.9,904.2z"/>
</g>
<path class="st3" d="M362,723.5c-1.3,38.8-19.5,85.5-29.7,100.7c-4,6-6.7,9.3-6.7,9.3h-33.7c0,0,0.1-0.2,0.3-0.5  c0-0.1,0.1-0.2,0.1-0.2c1.7-3,8.5-15.3,14.3-31.8c6.9-19.6,12.4-45.2,6.6-68.5H207.3c-11.5,46,21.3,101,21.3,101h-33.7  c0,0-34.6-56-36.3-110c-1.8-54,58.5-64,90.9-66h21.6c1.1,0.1,2.3,0.2,3.5,0.3C307.6,661.2,363.7,671.4,362,723.5z"/>
<circle class="st16" cx="278.5" cy="528.5" r="27"/>
<path class="st16" d="M207.5,586.7c0-24.3,24.2-51.7,54-51.7s54,27.4,54,51.7c0,24.3-24.2,45.8-54,45.8S207.5,611.1,207.5,586.7z"/>
<polygon class="st17" points="244.7,638.9 249.5,668.5 261.5,694 271.5,668.5 275.5,638.5 "/>
<path class="st10" d="M295,601c0,20.4-15,45-33.5,45S228,621.4,228,601s15-37,33.5-37S295,580.6,295,601z"/>
<rect x="235" y="556" class="st16" width="53" height="35"/>
<path class="st18" d="M313.5,768.9c7.9-22.3,8.7-34.4,6.9-39.9"/>
<path class="st18" d="M203.2,768.9c-7.9-22.3-8.7-34.4-6.9-39.9"/>
<path class="st5" d="M331.3,872H189.2c-4.4,0-7.9-3.5-7.9-7.9l-4-96.2c0-4.4,3.5-7.9,7.9-7.9h150.2c4.4,0,7.9,3.5,7.9,7.9l-4,96.2  C339.3,868.5,335.7,872,331.3,872z"/>
<g>
	<path class="st10" d="M397,872c-17.8,15.6-89.2,62.6-124.7,85.8C260,965.8,252,971,252,971s-10.2,4.4-22.5,9.9   c-11.4,5-24.6,10.9-33.5,15.1c-3.4,1.6-6.8-2.3-4.7-5.4c5-7.7,19.7-21.2,33.7-27.5c5-12,8.8-16.1,16-17c2.4-0.3,4.8-1,7.1-1.9   c4.2-1.7,8.4-4.2,12-6.8c8-5.8,13.9-12.3,13.9-12.3c20-28,61-97,113-109S421,851,397,872z"/>
	<path class="st8" d="M397,872c-17.8,15.6-89.2,62.6-124.7,85.8l-12.2-20.5c8-5.8,13.9-12.3,13.9-12.3c20-28,61-97,113-109   S421,851,397,872z"/>
	<path class="st3" d="M241,961c-4.1,2.5-5.2,11.3-11.5,19.9c-11.4,5-24.6,10.9-33.5,15.1c-3.4,1.6-6.8-2.3-4.7-5.4   c5-7.7,19.7-21.2,33.7-27.5c5-12,8.8-16.1,16-17c2.4-0.3,4.8-1,7.1-1.9C250.5,949.8,244.6,956.7,241,961z"/>
</g>
<circle class="st19" cx="260" cy="816" r="15"/>
<path class="st10" d="M873.4,295"/>
<path class="st3" d="M802,332.1c-20.5,5.1-62.6,24.6-65.1,28c-2.5,3.4-14.6,57.8-14.6,57.8s14.5,19,22.7,19.8  c1.5,9.9,10.3,162.3,10.3,162.3l108.8-29.5c0,0,3.1-207.5-37.6-235.9C811.7,328.5,802,332.1,802,332.1z"/>
<polygon class="st17" points="828.4,322.8 825.8,334.8 820,355 807.1,330.7 806.3,307 825.5,303.8 "/>
<path class="st20" d="M937.4,490.4l-72.9,20.9l-0.5-0.5c-2.2-2.2-3.3-5.3-3-8.5L873.4,371l71.6-15.7c3.4-0.7,6.9,0.2,9.4,2.5l0,0  L937.4,490.4z"/>
<polygon class="st5" points="941.4,494.4 864.5,511.3 877.4,375 954.3,358.1 "/>
<path class="st10" d="M723.3,412.8c-8.2,36.8,17.9,116.4,85.3,77.7c58.1-33.3,54.7-32.5,54.7-32.5s19.1-5.3,26-16.3  c-0.3-1.8-0.4-25.9-0.4-25.9l-29.3,18.4l-8.1,11.5c0,0-96.7,52.2-92.7-11.5L723.3,412.8"/>
<polygon class="st10" points="946.6,437 951,445 943.8,465.5 928,446 939,439 946.1,442.9 "/>
<path class="st13" d="M722,406c0,0-6,8-3,10s41,23,41,23l4-8L722,406z"/>
<ellipse transform="matrix(0.3167 -0.9485 0.9485 0.3167 215.4258 1165.0358)" class="st20" cx="916.3" cy="433" rx="15.4" ry="8.8"/>
<path class="st10" d="M857.3,271.3c0.7,19.7-2,39.4-4.3,45.5c-2.3,6.1-37.1,13.3-46.1,1.7s-12.1-49.1-9.6-51.8  C799.8,264,856.8,255.9,857.3,271.3z"/>
<path class="st16" d="M808.6,259c14,8.9,18.4,12.1,28.6,10.1c10.2-2.1,16.6,8.8,25.9,7.6s24.3-36.8-1.4-37.6  c-25.7-0.8-38.3,4-41.7,5.8C813,240,808.6,259,808.6,259z"/>
<path class="st16" d="M816.1,244.5c-4.8-5.3-21-3.8-24.9,7.4c-3.9,11.3-6.9,44.7-2.5,48c4.4,3.3,14.2,10.9,14.2,10.9l2.5-27.9  l9.7-19.8l5.3-6.3L816.1,244.5z"/>
<ellipse class="st10" cx="803.3" cy="288.9" rx="7.3" ry="9.4"/>
<g>
	<path class="st21" d="M706.2,465.6H352.4c-6.6,0-12,5.4-12,12V581c0,4.7,2.7,8.8,6.7,10.7c-0.3,8.3-1.5,14-3.2,17.8   c-0.7,1.6,1.1,3.2,2.6,2.3c6.8-4.2,13.7-13.3,17.4-18.7h342.4c6.6,0,12-5.4,12-12V477.6C718.2,471,712.8,465.6,706.2,465.6z"/>
	<circle class="st22" cx="392.7" cy="520" r="35.5"/>
	<path class="st22" d="M695.3,501.5H451.5c-1.9,0-3.5-1.6-3.5-3.5v-10c0-1.9,1.6-3.5,3.5-3.5h243.8c1.9,0,3.5,1.6,3.5,3.5v10   C698.8,499.9,697.2,501.5,695.3,501.5z"/>
	<path class="st22" d="M636.9,528.3H451c-1.7,0-3.1-1.4-3.1-3.1v-10.9c0-1.7,1.4-3.1,3.1-3.1h185.9c1.7,0,3.1,1.4,3.1,3.1v10.9   C640,526.9,638.6,528.3,636.9,528.3z"/>
	<path class="st22" d="M655.5,555.2H451.2c-1.8,0-3.2-1.4-3.2-3.2v-10.6c0-1.8,1.4-3.2,3.2-3.2h204.3c1.8,0,3.2,1.4,3.2,3.2v10.6   C658.7,553.7,657.3,555.2,655.5,555.2z"/>
</g>
<g>
	<path class="st21" d="M363.1,195.3h353.8c6.6,0,12,5.4,12,12l0,103.4c0,4.7-2.7,8.8-6.7,10.7c0.3,8.3,1.5,14,3.2,17.8   c0.7,1.6-1.1,3.2-2.6,2.3c-6.8-4.2-13.7-13.3-17.4-18.7H363.1c-6.6,0-12-5.4-12-12V207.3C351.1,200.7,356.5,195.3,363.1,195.3z"/>
	<circle class="st22" cx="405.9" cy="249.6" r="35.5"/>
	<path class="st22" d="M708.5,231.1H464.7c-1.9,0-3.5-1.6-3.5-3.5v-10c0-1.9,1.6-3.5,3.5-3.5h243.8c1.9,0,3.5,1.6,3.5,3.5v10   C712,229.5,710.5,231.1,708.5,231.1z"/>
	<path class="st22" d="M650.1,257.9H464.2c-1.7,0-3.1-1.4-3.1-3.1V244c0-1.7,1.4-3.1,3.1-3.1h185.9c1.7,0,3.1,1.4,3.1,3.1v10.9   C653.2,256.6,651.8,257.9,650.1,257.9z"/>
	<path class="st22" d="M668.7,284.8H464.4c-1.8,0-3.2-1.4-3.2-3.2V271c0-1.8,1.4-3.2,3.2-3.2h204.3c1.8,0,3.2,1.4,3.2,3.2v10.6   C671.9,283.3,670.5,284.8,668.7,284.8z"/>
</g>
</svg>