<svg width="352" height="232" fill="none" xmlns="http://www.w3.org/2000/svg">
  <g opacity="0.8">
    <g filter="url(#play_svg__filter0_dd)">
      <rect width="352" height="232" fill="#fff" rx="12"></rect>
    </g>
    <rect width="8" height="6" x="307.5" y="10.5" stroke="#FDA4AF" rx="0.5"></rect>
    <path fill="#FECDD3" d="M265 11a1 1 0 011-1h4v7h-4a1 1 0 01-1-1v-5z"></path>
    <rect width="8" height="6" x="265.5" y="10.5" stroke="#FDA4AF" rx="0.5"></rect>
    <path fill="#FDA4AF" d="M269 10h1v7h-1z"></path>
    <path fill="#FECDD3" d="M286 11a1 1 0 011-1h7a1 1 0 011 1v3h-9v-3z"></path>
    <rect width="8" height="6" x="286.5" y="10.5" stroke="#FDA4AF" rx="0.5"></rect>
    <path fill="#FDA4AF" d="M286 13h9v1h-9z"></path>
    <path fill="#FDA4AF" fill-rule="evenodd"
      d="M335 10h-5v1h1a1 1 0 011 1v4h3v-6zm-4 6v-4h-3v4h3zm-2-5h-1a1 1 0 00-1 1v4a1 1 0 001 1h7a1 1 0 001-1v-6a1 1 0 00-1-1h-5a1 1 0 00-1 1v1z"
      clip-rule="evenodd"></path>
    <circle cx="10" cy="54" r="2" fill="#FDA4AF"></circle>
    <circle cx="10" cy="62" r="2" fill="#FDA4AF"></circle>
    <circle cx="10" cy="70" r="2" fill="#FDA4AF"></circle>
    <circle cx="10" cy="78" r="2" fill="#FDA4AF"></circle>
    <circle cx="10" cy="86" r="2" fill="#FDA4AF"></circle>
    <circle cx="10" cy="94" r="2" fill="#FDA4AF"></circle>
    <circle cx="10" cy="102" r="2" fill="#FDA4AF"></circle>
    <circle cx="10" cy="110" r="2" fill="#FDA4AF"></circle>
    <circle cx="10" cy="118" r="2" fill="#FDA4AF"></circle>
    <circle cx="10" cy="126" r="2" fill="#FDA4AF"></circle>
    <circle cx="10" cy="134" r="2" fill="#FDA4AF"></circle>
    <circle cx="10" cy="142" r="2" fill="#FDA4AF"></circle>
    <circle cx="10" cy="150" r="2" fill="#FDA4AF"></circle>
    <circle cx="10" cy="158" r="2" fill="#FDA4AF"></circle>
    <circle cx="10" cy="166" r="2" fill="#FDA4AF"></circle>
    <circle cx="10" cy="174" r="2" fill="#FDA4AF"></circle>
    <circle cx="10" cy="182" r="2" fill="#FDA4AF"></circle>
    <circle cx="10" cy="190" r="2" fill="#FDA4AF"></circle>
    <circle cx="10" cy="198" r="2" fill="#FDA4AF"></circle>
    <circle cx="10" cy="206" r="2" fill="#FDA4AF"></circle>
    <circle cx="10" cy="214" r="2" fill="#FDA4AF"></circle>
    <circle cx="10" cy="222" r="2" fill="#FDA4AF"></circle>
    <path fill="#FB7185" fill-rule="evenodd"
      d="M17 8c-2.4 0-3.9 1.212-4.5 3.637.9-1.213 1.95-1.667 3.15-1.364.685.173 1.174.675 1.716 1.23.882.905 1.903 1.952 4.134 1.952 2.4 0 3.9-1.212 4.5-3.637-.9 1.213-1.95 1.667-3.15 1.364-.685-.173-1.174-.675-1.716-1.23C20.252 9.047 19.231 8 17 8zm-4.5 5.456c-2.4 0-3.9 1.212-4.5 3.636.9-1.212 1.95-1.666 3.15-1.363.685.173 1.174.674 1.716 1.23.882.905 1.903 1.952 4.134 1.952 2.4 0 3.9-1.212 4.5-3.637-.9 1.212-1.95 1.667-3.15 1.364-.685-.173-1.174-.675-1.716-1.23-.882-.905-1.903-1.952-4.134-1.952z"
      clip-rule="evenodd"></path>
    <path fill="#FFF1F2" d="M177 29h175v191c0 6.627-5.373 12-12 12H177V29z"></path>
    <path fill="#FECDD3" d="M0 27h352v2H0zm0 16h176v1H0z"></path>
    <path fill="#FECDD3" d="M175 29h2v203h-2z"></path>
    <rect width="31" height="4" x="20" y="52" fill="#FB7185" rx="2"></rect>
    <rect width="15" height="4" x="8" y="34" fill="#FB7185" rx="2"></rect>
    <rect width="15" height="4" x="27" y="34" fill="#FECDD3" rx="2"></rect>
    <rect width="15" height="4" x="46" y="34" fill="#FECDD3" rx="2"></rect>
    <rect width="87" height="4" x="28" y="60" fill="#FB7185" rx="2"></rect>
    <rect width="95" height="4" x="36" y="68" fill="#FB7185" rx="2"></rect>
    <rect width="87" height="4" x="36" y="76" fill="#FB7185" rx="2"></rect>
    <rect width="15" height="4" x="36" y="84" fill="#FB7185" rx="2"></rect>
    <rect width="15" height="4" x="28" y="92" fill="#FB7185" rx="2"></rect>
    <rect width="15" height="4" x="20" y="100" fill="#FB7185" rx="2"></rect>
    <rect width="39" height="4" x="20" y="108" fill="#FB7185" rx="2"></rect>
    <rect width="63" height="4" x="28" y="116" fill="#FB7185" rx="2"></rect>
    <rect width="87" height="4" x="36" y="124" fill="#FB7185" rx="2"></rect>
    <rect width="15" height="4" x="36" y="164" fill="#FB7185" rx="2"></rect>
    <rect width="15" height="4" x="36" y="172" fill="#FB7185" rx="2"></rect>
    <path fill="#FB7185"
      d="M44 134a2 2 0 012-2h129v4H46a2 2 0 01-2-2zm8 8a2 2 0 012-2h121v4H54a2 2 0 01-2-2zm0 8a2 2 0 012-2h121v4H54a2 2 0 01-2-2zm-8 8a2 2 0 012-2h59a2 2 0 110 4H46a2 2 0 01-2-2zm0 24a2 2 0 012-2h19a2 2 0 110 4H46a2 2 0 01-2-2zm8 8a2 2 0 012-2h51a2 2 0 110 4H54a2 2 0 01-2-2zm0 24a2 2 0 012-2h51a2 2 0 110 4H54a2 2 0 01-2-2zm-8 8a2 2 0 012-2h35a2 2 0 110 4H46a2 2 0 01-2-2zm16-24a2 2 0 012-2h113v4H62a2 2 0 01-2-2zm0 8a2 2 0 012-2h113v4H62a2 2 0 01-2-2z">
    </path>
    <rect width="64" height="64" x="232" y="99" fill="#fff" rx="8"></rect>
    <rect width="48" height="4" x="240" y="115" fill="#FB7185" rx="2"></rect>
    <rect width="40" height="4" x="244" y="123" fill="#FB7185" rx="2"></rect>
    <rect width="24" height="2" x="252" y="135" fill="#FECDD3" rx="1"></rect>
    <rect width="48" height="10" x="240" y="145" fill="#FB7185" rx="5"></rect>
    <circle cx="264" cy="99" r="8" fill="#FECDD3"></circle>
  </g>
  <defs>
    <filter id="play_svg__filter0_dd" width="382" height="262" x="-15" y="-7" color-interpolation-filters="sRGB"
      filterUnits="userSpaceOnUse">
      <feFlood flood-opacity="0" result="BackgroundImageFix"></feFlood>
      <feColorMatrix in="SourceAlpha" values="0 0 0 0 0 0 0 0 0 0 0 0 0 0 0 0 0 0 127 0"></feColorMatrix>
      <feOffset dy="3"></feOffset>
      <feGaussianBlur stdDeviation="3"></feGaussianBlur>
      <feColorMatrix values="0 0 0 0 0 0 0 0 0 0 0 0 0 0 0 0 0 0 0.05 0"></feColorMatrix>
      <feBlend in2="BackgroundImageFix" result="effect1_dropShadow"></feBlend>
      <feColorMatrix in="SourceAlpha" values="0 0 0 0 0 0 0 0 0 0 0 0 0 0 0 0 0 0 127 0"></feColorMatrix>
      <feOffset dy="8"></feOffset>
      <feGaussianBlur stdDeviation="7.5"></feGaussianBlur>
      <feColorMatrix values="0 0 0 0 0 0 0 0 0 0 0 0 0 0 0 0 0 0 0.1 0"></feColorMatrix>
      <feBlend in2="effect1_dropShadow" result="effect2_dropShadow"></feBlend>
      <feBlend in="SourceGraphic" in2="effect2_dropShadow" result="shape"></feBlend>
    </filter>
  </defs>
</svg>