<?xml version="1.0" encoding="UTF-8"?>
<svg width="600px" height="505px" viewBox="0 0 600 505" version="1.1" xmlns="http://www.w3.org/2000/svg" xmlns:xlink="http://www.w3.org/1999/xlink">
    <title>数据协同</title>
    <defs>
        <path d="M6.39601231,0.0975207356 C6.39601231,0.0975207356 7.41907898,7.88558108 7.7656705,9.32158362 C7.7979206,9.45640312 7.83405627,9.5706306 7.87602026,9.66815133 L7.87602026,9.66815133 L0.849770908,9.66815133 C0.978771339,9.49447895 1.06347644,9.3091507 1.09533799,9.10711571 C1.28889286,7.88135244 0.191322928,0.517700268 0.140168483,0.175867752 L0.138325763,0.163570636 L6.39601231,0.0975207356 Z" id="path-1"></path>
        <path d="M19.7529966,8.94931188 C34.6471066,0.714054863 45.568625,0.728041901 46.8559094,3.57984349 C47.8424518,5.7660952 19.790298,23.9939251 6.64041373,32.3845937 L6.64041373,32.3845937 L0.264606305,32.3845937" id="path-3"></path>
        <path d="M7.35613298,0.345013599 L12.1567364,4.68954294 C12.1567364,4.68954294 6.49859097,10.2066523 5.75334149,11.5416373 C5.68301294,11.6667436 5.63016939,11.7790285 5.59364517,11.8827656 L5.59364517,11.8827656 L0.254115306,6.94767249 C0.474814838,6.90648843 0.66948115,6.82489738 0.835394354,6.69396316 C1.81939764,5.91748378 6.85519436,0.849648035 7.32151184,0.379901236 L7.35613298,0.345013599 Z" id="path-5"></path>
        <path d="M5.10561945,0.253709324 L8.52218808,3.34562173 C8.52218808,3.34562173 4.49519874,7.27209406 3.96482046,8.22204704 C3.91508536,8.31102014 3.87700692,8.39066855 3.8509737,8.46448903 L3.8509737,8.46448903 L0.0516778833,4.95257696 C0.208265755,4.9234373 0.346980074,4.8655465 0.46510095,4.77191106 C1.16557687,4.21935133 4.75180834,0.610144015 5.08135295,0.278163466 L5.10561945,0.253709324 Z" id="path-7"></path>
    </defs>
    <g id="数据协同" stroke="none" stroke-width="1" fill="none" fill-rule="evenodd">
        <g id="编组" transform="translate(36.000000, 42.000000)">
            <path d="M540.450584,352.595389 L451.101078,352.595389 C450.147563,352.595389 449.374726,353.368173 449.374726,354.321622 C449.374726,355.275072 450.147563,356.048245 451.101078,356.048245 L540.450584,356.048245 C541.404099,356.048245 542.177325,355.275072 542.177325,354.321622 C542.177325,353.368173 541.404099,352.595389 540.450584,352.595389" id="Fill-1" fill="#9FD4E0"></path>
            <path d="M128.356949,284.368173 C129.732047,280.248213 129.298808,275.930104 127.475317,272.163705 C126.082734,269.287038 126.370654,266.010574 128.335967,263.606746 C129.986163,261.588728 131.29404,259.264548 132.157411,256.676946 C134.501566,249.653899 133.080619,242.215515 128.955325,236.276075 C126.795733,233.167455 126.453416,229.314026 128.166946,226.144408 C128.57454,225.390274 128.92152,224.593013 129.20128,223.756122 C131.26451,217.573462 129.073446,210.919129 124.163658,206.576931 C121.319432,204.060818 120.621198,200.117639 122.634692,197.176476 C123.580436,195.795645 124.411945,194.288153 124.92717,192.743751 C128.198807,182.941945 122.218938,172.115978 111.571351,168.562493 L111.540267,168.552003 C109.972834,168.030209 109.111795,166.432967 109.604872,164.994245 C109.622745,164.94257 109.64023,164.890508 109.657715,164.838445 C113.845567,152.290906 106.018893,138.412656 92.2154582,134.136508 C79.2544119,130.120674 64.9827679,136.729161 61.0121191,148.573074 C60.0535527,151.432646 59.720172,154.361376 59.9397059,157.229885 C60.4250117,163.560573 56.2764045,169.247081 49.8221089,170.843158 C38.6989302,173.593942 29.4272185,181.325665 25.7437123,192.36105 C23.4053852,199.36739 23.6684373,206.660853 26.025415,213.325288 C28.0995243,219.189354 25.8346342,225.464094 20.5199719,228.729679 C15.3339215,231.916393 11.2766248,236.726379 9.2670157,242.747022 C5.70629297,253.415247 9.57047755,264.904821 18.1462863,272.307849 C19.7510206,273.692955 20.3629955,275.772749 19.7265416,277.644293 C19.7207132,277.661388 19.7148849,277.678872 19.7090566,277.696356 C17.8657492,283.219682 21.2353026,289.320361 27.2349883,291.32245 C27.2804493,291.337603 27.3259103,291.352755 27.3721484,291.367131 C28.0556176,291.585873 28.4496128,292.269295 28.2401814,292.89638 L28.2359073,292.908813 C25.6395794,300.687549 30.3850079,309.279864 38.8357017,312.100195 C40.1144379,312.526799 41.4040537,312.796438 42.6816242,312.920768 C45.6241551,313.206336 48.2538988,314.980359 49.5951925,317.495695 C53.8141282,325.408861 61.2833309,331.910503 70.9039654,335.009797 C88.85795,340.793826 108.62882,331.861548 114.247333,315.431441 C115.427765,311.979362 115.944932,308.451521 115.866055,304.968748 C115.752597,299.973433 118.084319,295.33401 122.268284,292.428203 C125.05889,290.489444 127.231693,287.739049 128.356949,284.368173" id="Fill-3" fill="#89CEBC"></path>
            <path d="M87.0472536,322.781124 L87.0472536,336.936395 L33.7828981,336.936395 L33.7828981,341.942589 C33.7828981,385.245681 69.2152754,420.675625 112.52173,420.675625 L373.471728,420.675625 C416.777794,420.675625 452.21056,385.245681 452.21056,341.942589 L452.21056,322.781124 L87.0472536,322.781124 Z" id="Fill-7" fill="#FCFBED"></path>
            <path d="M322.181778,49.8271126 C322.04151,49.8271126 321.927663,49.7132736 321.927663,49.5730147 L321.927663,32.3417612 C321.927663,32.2011138 322.04151,32.0872748 322.181778,32.0872748 C322.322047,32.0872748 322.435893,32.2011138 322.435893,32.3417612 L322.435893,49.5730147 C322.435893,49.7132736 322.322047,49.8271126 322.181778,49.8271126" id="Fill-9" fill="#BBD4DD"></path>
            <path d="M361.123084,70.3345188 C361.083062,70.3345188 361.042653,70.3251941 361.004963,70.3053792 L322.063541,49.7976621 C321.939203,49.7323892 321.891411,49.5785318 321.956688,49.4542026 C322.022354,49.3298734 322.176222,49.2824728 322.300171,49.3477457 L361.241982,69.8554628 C361.366319,69.9207356 361.413723,70.074593 361.348446,70.1985337 C361.302985,70.2851757 361.214394,70.3345188 361.123084,70.3345188" id="Fill-11" fill="#BBD4DD"></path>
            <path d="M283.240472,70.3345188 C283.149162,70.3345188 283.060571,70.2851757 283.01511,70.1985337 C282.949833,70.074593 282.997625,69.9207356 283.121575,69.8554628 L322.063385,49.3477457 C322.187334,49.2824728 322.341202,49.3298734 322.406868,49.4542026 C322.472146,49.5785318 322.424742,49.7323892 322.300016,49.7976621 L283.358593,70.3053792 C283.320903,70.3251941 283.280494,70.3345188 283.240472,70.3345188" id="Fill-13" fill="#BBD4DD"></path>
            <path d="M322.181778,32.5958202 C322.065989,32.5958202 321.961856,32.5165603 321.934268,32.3996132 C321.902407,32.262851 321.9875,32.1260889 322.124272,32.093841 L457.084755,0.643209473 C457.13993,0.630388022 457.197048,0.636215954 457.248337,0.659916213 L525.844316,32.1051083 C525.972151,32.1637762 526.028492,32.3145253 525.96982,32.4419628 C525.911148,32.5697888 525.760388,32.6257369 525.632553,32.5674576 L457.11584,1.15801017 L322.239284,32.5892152 C322.220245,32.5938776 322.200817,32.5958202 322.181778,32.5958202" id="Fill-15" fill="#BBD4DD"></path>
            <path d="M444.313052,322.232094 C444.086524,322.232094 443.859997,322.146229 443.686312,321.973723 C443.337389,321.627932 443.335058,321.064565 443.681261,320.715666 L468.974282,295.225844 L443.689032,270.341738 C443.520399,270.175836 443.424814,269.949713 443.423107,269.713098 C443.421706,269.476873 443.514182,269.249584 443.680484,269.081351 L468.982053,243.522759 L443.681261,218.011179 C443.335058,217.66228 443.337389,217.099302 443.686701,216.753123 L468.975448,191.673975 L443.682427,166.268464 C443.337778,165.922285 443.336612,165.36358 443.679318,165.015847 L468.980888,139.362454 L443.683592,114.056406 C443.337389,113.709838 443.336224,113.148803 443.680872,112.801069 L468.983219,87.2622924 L443.698746,61.6831086 C443.35332,61.3334326 443.356817,60.7700658 443.706129,60.4246637 C444.055828,60.0792616 444.619234,60.0823698 444.96466,60.4320457 L470.868102,86.6375381 C471.210808,86.9844943 471.210419,87.5428102 470.867325,87.889378 L445.568087,113.42427 L470.864216,138.729152 C471.210031,139.074943 471.211973,139.634813 470.86849,139.982935 L445.565755,165.637882 L470.86577,191.050387 C471.032461,191.217454 471.125714,191.444355 471.125034,191.680969 C471.12416,191.917194 471.029352,192.143318 470.861496,192.309608 L445.571195,217.389921 L470.866936,242.895673 C471.210808,243.242241 471.211196,243.801334 470.867325,244.14829 L445.573138,269.6995 L470.859165,294.584383 C471.027798,294.750285 471.123383,294.976797 471.125034,295.213022 C471.126103,295.449637 471.033626,295.677314 470.866547,295.845159 L444.944844,321.96906 C444.770771,322.144287 444.541911,322.232094 444.313052,322.232094" id="Fill-17" fill="#E6E6E6"></path>
            <path d="M472.125895,61.3116362 L442.571197,61.3116362 C441.88695,61.3116362 441.332093,60.756817 441.332093,60.0726177 L441.332093,30.5199495 C441.332093,29.8357503 441.88695,29.2809311 442.571197,29.2809311 L472.125895,29.2809311 C472.81053,29.2809311 473.364998,29.8357503 473.364998,30.5199495 L473.364998,60.0726177 C473.364998,60.756817 472.81053,61.3116362 472.125895,61.3116362" id="Fill-19" fill="#FCC14A"></path>
            <path d="M445.203272,320.452593 L469.345392,320.452593 L469.339563,61.9472693 L445.35714,61.9472693 L445.203272,320.452593 Z M470.235184,322.232055 L444.313091,322.232055 C444.077238,322.232055 443.85071,322.13842 443.683631,321.971352 C443.516552,321.804285 443.42291,321.577773 443.423298,321.341936 L443.577944,61.0571498 C443.578333,60.5656608 443.976602,60.1678073 444.467736,60.1678073 L470.229355,60.1678073 C470.721267,60.1678073 471.119147,60.5660493 471.119536,61.0575383 L471.124976,321.342324 C471.124976,321.578161 471.031334,321.804674 470.864255,321.971352 C470.697176,322.13842 470.471037,322.232055 470.235184,322.232055 L470.235184,322.232055 Z" id="Fill-21" fill="#FCC14A"></path>
            <path d="M470.235106,322.232094 C470.005858,322.232094 469.776999,322.144287 469.603315,321.96906 L443.681222,295.845159 C443.514532,295.677314 443.421667,295.449637 443.423221,295.213022 C443.424775,294.976797 443.519972,294.750285 443.688993,294.584383 L468.97502,269.6995 L443.680445,244.14829 C443.336962,243.801334 443.33735,243.242241 443.681222,242.895673 L468.976575,217.389921 L443.686662,192.309608 C443.518417,192.143318 443.423998,191.917194 443.423221,191.680969 C443.422444,191.444355 443.515697,191.217454 443.682388,191.050387 L468.982014,165.637882 L443.679279,139.982935 C443.335796,139.634813 443.337739,139.074943 443.683553,138.729152 L468.979683,113.42427 L443.680834,87.889378 C443.33735,87.5428102 443.336962,86.9844943 443.680056,86.6375381 L469.596709,60.4316572 C469.942524,60.0823698 470.505929,60.0796501 470.855241,60.4246637 C471.204552,60.7704544 471.208049,61.3338212 470.862235,61.6831086 L445.565328,87.262681 L470.867286,112.801069 C471.211934,113.148803 471.210769,113.709838 470.864177,114.056406 L445.567271,139.362454 L470.868451,165.015847 C471.211546,165.36358 471.21038,165.922285 470.865732,166.268464 L445.572322,191.673975 L470.861457,216.753123 C471.210769,217.099302 471.2131,217.66228 470.866897,218.011179 L445.565716,243.522759 L470.867286,269.081351 C471.033976,269.249584 471.126452,269.476873 471.125003,269.713098 C471.123344,269.949713 471.027759,270.175836 470.859126,270.341738 L445.573876,295.225844 L470.866509,320.715666 C471.2131,321.064565 471.210769,321.627932 470.861846,321.973723 C470.688162,322.146229 470.461634,322.232094 470.235106,322.232094" id="Fill-23" fill="#FCC14A"></path>
            <path d="M474.254985,57.21425 L524.848798,57.3638336 L524.848798,33.2260917 L474.254985,33.2311426 L474.254985,57.21425 Z M525.73859,59.1460153 L525.73587,59.1460153 L473.362473,58.9913809 C472.872116,58.9898267 472.4754,58.5919732 472.4754,58.1016498 L472.4754,32.3414115 C472.4754,31.8503111 472.87367,31.4516805 473.365193,31.4516805 L525.73859,31.4462411 C525.974443,31.4462411 526.200583,31.5398766 526.367662,31.706944 C526.534741,31.8736228 526.628382,32.1001351 526.628382,32.3359721 L526.628382,58.2562843 C526.628382,58.4928984 526.534352,58.7194107 526.366885,58.8864781 C526.199806,59.0527684 525.974055,59.1460153 525.73859,59.1460153 L525.73859,59.1460153 Z" id="Fill-25" fill="#FCC14A"></path>
            <path d="M499.572563,59.1462873 C499.346423,59.1462873 499.120284,59.0604224 498.946988,58.8890812 L472.739307,32.9742084 C472.389996,32.6288063 472.386888,32.0654395 472.732702,31.7157636 C473.078128,31.3664762 473.641922,31.3637565 473.990845,31.7087701 L499.572174,57.0043279 L525.112316,31.7041077 C525.461628,31.3583171 526.024645,31.3606482 526.370848,31.7099356 C526.716662,32.0592231 526.714331,32.6222013 526.365019,32.9683805 L500.198914,58.8883042 C500.025618,59.0604224 499.79909,59.1462873 499.572563,59.1462873" id="Fill-27" fill="#FCC14A"></path>
            <path d="M330.457933,33.2309483 L440.442456,57.1522797 L440.442456,33.2258974 L330.457933,33.2309483 Z M441.332249,59.1462096 C441.268914,59.1462096 441.20558,59.1396046 441.143022,59.1256176 L321.992862,33.2111333 C321.548355,33.1143896 321.248779,32.6982753 321.297348,32.2464162 C321.345917,31.7945572 321.72709,31.4518748 322.1817,31.4518748 L441.332249,31.4464354 C441.568102,31.4464354 441.79463,31.5400708 441.961709,31.7071382 C442.12801,31.8738171 442.222041,32.1003294 442.222041,32.3361664 L442.222041,58.2564786 C442.222041,58.5257291 442.100034,58.7802154 441.890603,58.9492255 C441.730907,59.0778285 441.53352,59.1462096 441.332249,59.1462096 L441.332249,59.1462096 Z" id="Fill-29" fill="#FCC14A"></path>
            <path d="M419.784747,54.4596583 C419.560162,54.4596583 419.335577,54.3753476 419.162281,54.205949 L398.041569,33.5435974 L385.132589,46.4513021 C384.785609,46.7990354 384.222204,46.7990354 383.874447,46.4513021 L371.368399,33.9461133 L363.636144,41.677837 C363.289164,42.0251817 362.72537,42.0251817 362.378001,41.677837 L354.617382,33.9177507 L349.883999,38.6511974 C349.536242,38.9985422 348.972836,38.9985422 348.625079,38.6511974 L343.721897,33.7479636 L340.659691,36.8099593 C340.312322,37.1576926 339.749305,37.1573041 339.401548,36.8099593 L336.216947,33.625577 L334.359652,35.4827448 C334.012672,35.8300896 333.449266,35.8300896 333.101509,35.4827448 C332.75414,35.1354 332.75414,34.5716447 333.101509,34.2242999 L335.587876,31.7384925 C335.921645,31.4047462 336.512638,31.4047462 336.846407,31.7384925 L340.03062,34.9224862 L343.092826,31.8604906 C343.440583,31.5131458 344.0036,31.5131458 344.350968,31.8604906 L349.254539,36.7637244 L353.988311,32.0302777 C354.335679,31.6825444 354.899085,31.6825444 355.246453,32.0302777 L363.007073,39.7903639 L370.738939,32.0586403 C371.086696,31.7112955 371.650102,31.7112955 371.997859,32.0586403 L384.503518,44.5638291 L397.405504,31.6631179 C397.750153,31.3181043 398.308507,31.3149961 398.657041,31.6561244 L419.782416,52.3227498 L440.707684,31.7023593 C441.057773,31.3577343 441.62079,31.3616195 441.966216,31.711684 C442.311253,32.0617485 442.306979,32.6251153 441.95689,32.9697404 L420.409156,54.2036178 C420.236249,54.374182 420.010498,54.4596583 419.784747,54.4596583" id="Fill-31" fill="#FCC14A"></path>
            <polygon id="Fill-33" fill="#0D232B" points="445.616773 43.1266998 468.668217 43.1266998 468.668217 40.5845557 445.616773 40.5845557"></polygon>
            <path d="M444.312703,30.1709031 C444.190308,30.1709031 444.065581,30.1456409 443.946683,30.0916354 C443.498679,29.8892118 443.300127,29.3623668 443.502176,28.914393 L456.33189,0.524591622 C456.475267,0.206775042 456.790774,0.00240887873 457.139309,0.00124329225 L457.142806,0.00124329225 C457.489786,0.00124329225 457.805293,0.202889754 457.951001,0.518375161 L471.042991,28.9081766 C471.248925,29.3545962 471.05387,29.8829954 470.607808,30.0889157 C470.161358,30.2948359 469.632923,30.0994059 469.426988,29.6533749 L457.150965,3.03332226 L445.124006,29.6471584 C444.97519,29.9762423 444.651523,30.1709031 444.312703,30.1709031" id="Fill-35" fill="#FCC14A"></path>
            <path d="M348.326591,75.8427697 C346.126589,75.8427697 344.343508,77.626117 344.343508,79.8255787 C344.343508,82.0254289 346.126589,83.8083877 348.326591,83.8083877 C350.526203,83.8083877 352.309673,82.0254289 352.309673,79.8255787 C352.309673,77.626117 350.526203,75.8427697 348.326591,75.8427697 L348.326591,75.8427697 Z M330.557947,75.8427697 C328.357557,75.8427697 326.574864,77.626117 326.574864,79.8255787 C326.574864,82.0254289 328.357557,83.8083877 330.557947,83.8083877 C332.75756,83.8083877 334.54103,82.0254289 334.54103,79.8255787 C334.54103,77.626117 332.75756,75.8427697 330.557947,75.8427697 L330.557947,75.8427697 Z M312.788915,75.8427697 C310.589302,75.8427697 308.805832,77.626117 308.805832,79.8255787 C308.805832,82.0254289 310.589302,83.8083877 312.788915,83.8083877 C314.988528,83.8083877 316.771997,82.0254289 316.771997,79.8255787 C316.771997,77.626117 314.988528,75.8427697 312.788915,75.8427697 L312.788915,75.8427697 Z M295.020271,75.8427697 C292.82027,75.8427697 291.037189,77.626117 291.037189,79.8255787 C291.037189,82.0254289 292.82027,83.8083877 295.020271,83.8083877 C297.220272,83.8083877 299.003354,82.0254289 299.003354,79.8255787 C299.003354,77.626117 297.220272,75.8427697 295.020271,75.8427697 L295.020271,75.8427697 Z M283.240045,89.5710473 L361.546803,89.5710473 L361.546803,70.0801101 L283.240045,70.0801101 L283.240045,89.5710473 Z" id="Fill-36" fill="#F29D7E"></path>
            <path d="M436.330995,269.33032 C437.083627,266.070952 436.208989,262.876468 434.163633,260.261669 C432.601251,258.264242 432.484684,255.767556 433.956144,253.727779 C435.190973,252.015533 436.087759,250.113684 436.560243,248.066526 C437.843253,242.510175 435.738059,237.087478 431.402946,233.11244 C429.134559,231.031479 428.392806,228.175792 429.55381,225.590133 C429.829684,224.975092 430.046887,224.334796 430.200366,223.672355 C431.329509,218.781165 428.629825,214.039171 423.780264,211.357157 C420.971007,209.803041 419.904034,206.9221 421.356843,204.472814 C422.039146,203.322769 422.60566,202.091133 422.887363,200.869209 C424.678215,193.114563 418.1431,185.685503 408.291664,184.276309 L408.262911,184.272423 C406.812433,184.065726 405.867466,182.966967 406.141786,181.827412 C406.1515,181.786227 406.161214,181.745432 406.170928,181.703859 C408.462628,171.776948 399.942383,162.272756 387.20903,160.694163 C375.252011,159.211537 363.338511,165.869367 361.159491,175.241848 C360.633387,177.50464 360.669523,179.745674 361.190187,181.875589 C362.339146,186.576788 359.304139,191.341705 353.757509,193.306496 C344.19982,196.692136 336.850293,203.601733 334.834467,212.332752 C333.554565,217.875505 334.616098,223.326564 337.46421,228.056514 C339.970005,232.218435 338.672229,237.202871 334.327013,240.287402 C330.087095,243.296557 327.032661,247.392817 325.933048,252.15618 C323.984054,260.59658 328.717437,268.774724 337.167354,273.322842 C338.748386,274.17372 339.52744,275.664505 339.175409,277.146743 C339.171912,277.160341 339.168803,277.17394 339.165695,277.187927 C338.156616,281.557711 341.839345,285.74372 347.390638,286.537873 C347.432602,286.54409 347.474566,286.549918 347.516919,286.555357 C348.14871,286.638891 348.575732,287.105902 348.46072,287.602054 L348.458777,287.611767 C347.037441,293.766452 352.224269,299.661988 360.042783,300.780563 C361.225546,300.949573 362.400538,300.999693 363.548331,300.941802 C366.191674,300.80776 368.72661,301.829202 370.202344,303.561264 C374.844416,309.009215 382.209875,313.011062 391.098859,314.200737 C407.686294,316.420791 424.215834,307.364961 427.336712,294.350022 C427.992205,291.615556 428.050489,288.902848 427.585388,286.294266 C426.917461,282.553121 428.460026,278.789831 431.84279,276.109759 C434.099132,274.322138 435.715135,271.99757 436.330995,269.33032" id="Fill-37" fill="#89CEBC"></path>
            <path d="M479.157856,321.519338 L389.807961,321.519338 C388.854446,321.519338 388.081609,322.292122 388.081609,323.245572 C388.081609,324.199021 388.854446,324.972194 389.807961,324.972194 L479.157856,324.972194 C480.111371,324.972194 480.884208,324.199021 480.884208,323.245572 C480.884208,322.292122 480.111371,321.519338 479.157856,321.519338" id="Fill-39" fill="#9FD4E0"></path>
            <path d="M91.9755363,335.187666 L2.62603024,335.187666 C1.67251501,335.187666 0.899678089,335.960449 0.899678089,336.913899 C0.899678089,337.867349 1.67251501,338.640521 2.62603024,338.640521 L91.9755363,338.640521 C92.9290515,338.640521 93.7018884,337.867349 93.7018884,336.913899 C93.7018884,335.960449 92.9290515,335.187666 91.9755363,335.187666" id="Fill-40" fill="#9FD4E0"></path>
            <path d="M135.129872,348.685623 C135.129872,350.767749 120.93283,352.455519 103.419468,352.455519 C85.9061049,352.455519 71.708675,350.767749 71.708675,348.685623 C71.708675,346.603886 85.9061049,344.915728 103.419468,344.915728 C120.93283,344.915728 135.129872,346.603886 135.129872,348.685623" id="Fill-41" fill="#9FD4E0"></path>
            <path d="M380.186239,334.034046 L95.2448812,334.034046 C83.8372799,334.034046 74.5888816,324.786671 74.5888816,313.379465 L74.5888816,125.892548 C74.5888816,114.485342 83.8372799,105.238356 95.2448812,105.238356 L380.186239,105.238356 C391.594229,105.238356 400.842238,114.485342 400.842238,125.892548 L400.842238,313.379465 C400.842238,324.786671 391.594229,334.034046 380.186239,334.034046" id="Fill-42" fill="#D8DFE2"></path>
            <path d="M377.566908,337.984374 L93.5538099,337.984374 C81.4891612,337.984374 71.7088304,328.204715 71.7088304,316.140895 L71.7088304,128.538196 C71.7088304,116.474376 81.4891612,106.694717 93.5538099,106.694717 L377.566908,106.694717 C389.631557,106.694717 399.411888,116.474376 399.411888,128.538196 L399.411888,316.140895 C399.411888,328.204715 389.631557,337.984374 377.566908,337.984374" id="Fill-43" fill="#0C252E"></path>
            <path d="M380.125119,335.515467 L92.6476596,335.515467 C81.9398467,335.515467 73.2595166,326.835733 73.2595166,316.129045 L73.2595166,126.1062 C73.2595166,115.399123 81.9398467,106.719389 92.6476596,106.719389 L380.125119,106.719389 C390.832932,106.719389 399.512874,115.399123 399.512874,126.1062 L399.512874,316.129045 C399.512874,326.835733 390.832932,335.515467 380.125119,335.515467" id="Fill-44" fill="#184657"></path>
            <polygon id="Fill-45" fill="#FFFFFF" points="94.4418535 330.397144 378.330614 330.397144 378.330614 111.837634 94.4418535 111.837634"></polygon>
            <path d="M95.0266296,329.812797 L377.745838,329.812797 L377.745838,112.42237 L95.0266296,112.42237 L95.0266296,329.812797 Z M93.8570775,330.98188 L378.91539,330.98188 L378.91539,111.252898 L93.8570775,111.252898 L93.8570775,330.98188 Z" id="Fill-46" fill="#000000"></path>
            <path d="M388.183877,227.795656 L388.183877,227.795656 C387.538098,227.795656 387.014325,227.271919 387.014325,226.626184 L387.014325,210.978186 C387.014325,210.332451 387.538098,209.809102 388.183877,209.809102 C388.829656,209.809102 389.353429,210.332451 389.353429,210.978186 L389.353429,226.626184 C389.353429,227.271919 388.829656,227.795656 388.183877,227.795656" id="Fill-47" fill="#035E80"></path>
            <path d="M86.2557271,218.802224 C86.2557271,219.893213 85.4622968,220.777116 84.4835254,220.777116 C83.5047541,220.777116 82.7113237,219.893213 82.7113237,218.802224 C82.7113237,217.711623 83.5047541,216.827332 84.4835254,216.827332 C85.4622968,216.827332 86.2557271,217.711623 86.2557271,218.802224" id="Fill-48" fill="#000000"></path>
            <polygon id="Fill-49" fill="#FEEBC3" points="113.126323 233.709414 359.442112 233.709414 359.442112 136.602073 113.126323 136.602073"></polygon>
            <polygon id="Fill-96" fill="#184657" points="275.084809 248.252437 359.607678 248.252437 359.607678 242.966114 275.084809 242.966114"></polygon>
            <polygon id="Fill-97" fill="#184657" points="113.125934 136.602073 151.110344 136.602073 151.110344 127.871053 113.125934 127.871053"></polygon>
            <polygon id="Fill-98" fill="#035E80" points="151.110344 136.602073 210.654534 136.602073 210.654534 127.871053 151.110344 127.871053"></polygon>
            <path d="M233.876865,230.416166 L137.24,219.470144 C133.790016,219.079672 131.309866,215.966391 131.700753,212.516643 L134.691853,186.112613 C135.08274,182.662865 138.196235,180.183274 141.64622,180.573746 L238.283473,191.519768 C241.733457,191.910628 244.213218,195.02391 243.822332,198.473657 L240.830843,224.877299 C240.440733,228.327047 237.326849,230.806638 233.876865,230.416166" id="Fill-99" fill="#060606" opacity="0.07"></path>
            <path d="M230.149529,224.514608 L130.676987,206.951939 C126.819796,206.270848 124.244839,202.592257 124.925976,198.735331 L129.266919,174.153501 C129.947668,170.296964 133.6269,167.722183 137.484479,168.403274 L236.956633,185.965554 C240.813824,186.646645 243.388393,190.325625 242.707255,194.182551 L238.366701,218.763992 C237.685952,222.620918 234.00672,225.19531 230.149529,224.514608" id="Fill-100" fill="#FFFFFF"></path>
            <path d="M231.08148,225.491641 L130.320875,207.701683 C126.819213,207.083534 124.482052,203.74374 125.100244,200.242707 L129.668491,174.372903 C130.286683,170.87187 133.626317,168.534481 137.127979,169.153018 L237.888584,186.942976 C241.389858,187.561126 243.727407,190.900531 243.109216,194.401564 L238.540968,220.271368 C237.922388,223.772789 234.583142,226.10979 231.08148,225.491641" id="Fill-101" fill="#E85F5B"></path>
            <path d="M144.942025,252.630418 L138.939231,273.686738 L119.268997,283.310986 C117.843386,280.40479 117.044128,277.138428 117.044128,273.686738 C117.044128,261.596887 126.846606,251.79547 138.939231,251.79547 C141.021111,251.79547 143.034995,252.084924 144.942025,252.630418" id="Fill-102" fill="#184657"></path>
            <path d="M138.939153,273.686661 L160.832314,273.686661 C160.832314,273.739889 160.832314,273.791175 160.829982,273.844403 C153.755552,273.919001 138.939153,273.686661 138.939153,273.686661" id="Fill-103" fill="#F29D7E"></path>
            <path d="M156.306147,260.358684 L138.93927,273.686777 L144.942064,252.630457 C149.519248,253.930475 153.482514,256.683201 156.306147,260.358684" id="Fill-104" fill="#FAF8DC"></path>
            <path d="M160.832197,273.686661 L138.939037,273.686661 L156.306302,260.358568 C159.144312,264.049203 160.832197,268.670753 160.832197,273.686661" id="Fill-105" fill="#FCC14A"></path>
            <path d="M160.829943,273.844287 C160.815178,276.281917 160.399813,278.625522 159.645238,280.811774 L138.939114,273.686544 C138.939114,273.686544 153.755513,273.918884 160.829943,273.844287" id="Fill-106" fill="#7AC4B2"></path>
            <path d="M159.645277,280.811852 C156.689923,289.405332 148.534532,295.580221 138.939153,295.580221 C130.300787,295.580221 122.829642,290.577135 119.268919,283.311258 L138.939153,273.686622 L159.645277,280.811852 Z" id="Fill-107" fill="#ED6D53"></path>
            <path d="M253.285679,106.719428 L91.6244375,106.719428 C81.4819729,106.719428 73.2597497,115.882491 73.2597497,127.185961 L73.2597497,315.049362 C73.2597497,326.352442 81.4819729,335.515506 91.6244375,335.515506 L109.73773,335.515506 L253.285679,106.719428 Z" id="Fill-108" fill="#FFFFFF" opacity="0.300000012"></path>
            <polygon id="Fill-109" fill="#FFFFFF" points="220.714158 201.3945 149.33107 188.791402 149.796949 186.152126 221.180425 198.755224"></polygon>
            <polygon id="Fill-110" fill="#FFFFFF" points="208.45189 206.530735 159.291458 197.851001 159.757725 195.211725 208.917768 203.891459"></polygon>
            <path d="M190.428082,251.795276 L190.428082,256.742802 C181.069334,256.742802 173.483565,264.328439 173.483565,273.686544 C173.483565,278.355106 175.371167,282.584631 178.426768,285.648569 L174.919666,289.142998 C170.973107,285.181946 168.532979,279.718843 168.532979,273.686544 C168.532979,261.596692 178.335457,251.795276 190.428082,251.795276" id="Fill-112" fill="#F9D4D3"></path>
            <path d="M212.321126,273.686661 C212.321126,285.778843 202.518647,295.58026 190.427965,295.58026 C184.368054,295.58026 178.885147,293.11893 174.919549,289.143114 L178.42704,285.648686 C181.495463,288.727388 185.7381,290.632345 190.427965,290.632345 C199.787102,290.632345 207.37326,283.044766 207.37326,273.686661 C207.37326,264.328555 199.787102,256.742918 190.427965,256.742918 L190.427965,251.795392 C202.518647,251.795392 212.321126,261.596809 212.321126,273.686661" id="Fill-113" fill="#E85F5B"></path>
            <path d="M207.373143,273.686661 C207.373143,283.044766 199.787374,290.632345 190.428237,290.632345 C185.737984,290.632345 181.495346,288.727388 178.426923,285.648686 C175.371323,282.584359 173.483331,278.355223 173.483331,273.686661 C173.483331,264.328555 181.069489,256.742918 190.428237,256.742918 C199.787374,256.742918 207.373143,264.328555 207.373143,273.686661" id="Fill-114" fill="#FAF8DC"></path>
            <path d="M258.923503,286.733109 C254.934203,292.102577 248.544019,295.580299 241.341366,295.580299 C229.248741,295.580299 219.446263,285.778494 219.446263,273.686699 C219.446263,261.596848 229.248741,251.795431 241.341366,251.795431 L241.341366,256.742957 C231.982618,256.742957 224.396848,264.328206 224.396848,273.686699 C224.396848,278.355262 226.284451,282.584398 229.340052,285.648336 C232.408863,288.727427 236.651501,290.632384 241.341366,290.632384 C246.915972,290.632384 251.861506,287.939102 254.949357,283.784175 L258.923503,286.733109 Z" id="Fill-115" fill="#B3DFD4"></path>
            <path d="M263.234448,273.686661 C263.234448,278.574742 261.632046,283.089447 258.923425,286.73307 L254.949668,283.784136 C257.046313,280.96536 258.286583,277.470931 258.286583,273.686661 C258.286583,264.328555 250.700425,256.742918 241.341288,256.742918 L241.341288,251.795392 C253.43197,251.795392 263.234448,261.596809 263.234448,273.686661" id="Fill-116" fill="#41B093"></path>
            <path d="M258.286427,273.686661 C258.286427,277.470931 257.046547,280.96536 254.949512,283.784136 C251.861662,287.939063 246.915739,290.632345 241.341521,290.632345 C236.651268,290.632345 232.40863,288.727388 229.340207,285.648686 C226.284607,282.584359 224.396615,278.355223 224.396615,273.686661 C224.396615,264.328555 231.982773,256.742918 241.341521,256.742918 C250.700658,256.742918 258.286427,264.328555 258.286427,273.686661" id="Fill-117" fill="#FAF8DC"></path>
            <path d="M312.878088,352.933254 C312.878088,325.254071 335.318335,268.406476 362.999418,268.406476 C390.680502,268.406476 413.12036,325.254071 413.12036,352.933254 L312.878088,352.933254 Z" id="Fill-118" fill="#41B093"></path>
            <polygon id="Fill-119" fill="#C0E3EB" points="275.084809 303.789136 359.607678 303.789136 359.607678 264.270703 275.084809 264.270703"></polygon>
            <path d="M312.878088,352.933254 C312.878088,325.254071 335.318335,268.406476 362.999418,268.406476 C390.680502,268.406476 413.12036,325.254071 413.12036,352.933254 L312.878088,352.933254 Z" id="Fill-120" fill="#ED6D53"></path>
            <path d="M377.505789,273.551025 L368.900838,279.613629 C367.373038,278.244842 365.355658,277.411836 363.143223,277.411836 C358.375258,277.411836 354.509908,281.276532 354.509908,286.044558 C354.509908,287.197323 354.737601,288.29686 355.147916,289.302372 L321.963332,312.681317 C320.636415,316.034321 319.435779,319.419961 318.375022,322.777239 L359.44262,293.844663 C360.563991,294.377724 361.818637,294.67728 363.143223,294.67728 C367.911187,294.67728 371.776538,290.812195 371.776538,286.044558 C371.776538,285.754716 371.761772,285.467981 371.733796,285.185521 L382.431895,277.648839 C380.830658,276.116481 379.18668,274.742254 377.505789,273.551025" id="Fill-121" fill="#CBC7FF"></path>
            <path d="M459.469398,220.294874 L271.999911,352.368255 C270.603443,353.352398 268.673487,353.017875 267.689665,351.621114 C266.705454,350.224741 267.04,348.294919 268.436857,347.310775 L455.905956,215.237394 C457.302424,214.25325 459.232768,214.587774 460.216591,215.984535 C461.200413,217.380907 460.866255,219.31073 459.469398,220.294874" id="Fill-122" fill="#E85F5B"></path>
            <path d="M371.776499,284.60568 C371.776499,289.373318 367.911148,293.238402 363.143184,293.238402 C358.375219,293.238402 354.509869,289.373318 354.509869,284.60568 C354.509869,279.838043 358.375219,275.972958 363.143184,275.972958 C367.911148,275.972958 371.776499,279.838043 371.776499,284.60568" id="Fill-123" fill="#FAF8DC"></path>
            <path d="M368.655543,285.948475 C368.655543,288.992598 366.187438,291.460533 363.143106,291.460533 C360.098774,291.460533 357.630669,288.992598 357.630669,285.948475 C357.630669,282.904352 360.098774,280.436416 363.143106,280.436416 C366.187438,280.436416 368.655543,282.904352 368.655543,285.948475" id="Fill-124" fill="#CBC7FF"></path>
            <path d="M368.655543,284.60568 C368.655543,287.649804 366.187438,290.117739 363.143106,290.117739 C360.098774,290.117739 357.630669,287.649804 357.630669,284.60568 C357.630669,281.561557 360.098774,279.093233 363.143106,279.093233 C366.187438,279.093233 368.655543,281.561557 368.655543,284.60568" id="Fill-125" fill="#ED6D53"></path>
            <path d="M130.142023,347.985222 C130.142023,346.290071 118.589102,344.915845 104.338052,344.915845 C90.087001,344.915845 78.5344685,346.290071 78.5344685,347.985222 C78.5344685,348.221059 78.7582765,348.450291 79.1810249,348.670976 C80.8183978,350.150105 91.4566592,351.291603 104.338052,351.291603 C117.219055,351.291603 127.857705,350.150105 129.495078,348.670976 C129.917827,348.450291 130.142023,348.221059 130.142023,347.985222" id="Fill-126" fill="#41B093"></path>
            <path d="M130.142023,347.985222 C130.142023,346.290071 118.589102,344.915845 104.338052,344.915845 C90.087001,344.915845 78.5344685,346.290071 78.5344685,347.985222 C78.5344685,348.221059 78.7582765,348.450291 79.1810249,348.670976 C80.8183978,350.150105 91.4566592,351.291603 104.338052,351.291603 C117.219055,351.291603 127.857705,350.150105 129.495078,348.670976 C129.917827,348.450291 130.142023,348.221059 130.142023,347.985222" id="Fill-127" fill="#CBC7FF"></path>
            <path d="M78.534352,335.346457 L78.534352,347.815902 C78.534352,349.511053 90.0868845,350.885279 104.337935,350.885279 C118.588986,350.885279 130.141907,349.511053 130.141907,347.815902 L130.141907,335.346457 L78.534352,335.346457 Z" id="Fill-128" fill="#7AC4B2"></path>
            <path d="M130.142023,335.346457 C130.142023,337.041609 118.589102,338.415835 104.338052,338.415835 C90.087001,338.415835 78.5344685,337.041609 78.5344685,335.346457 C78.5344685,333.651306 90.087001,332.27708 104.338052,332.27708 C118.589102,332.27708 130.142023,333.651306 130.142023,335.346457" id="Fill-129" fill="#AFDCD1"></path>
            <path d="M129.714768,335.058674 C129.714768,336.725851 118.353016,338.077155 104.337818,338.077155 C90.3230097,338.077155 78.9616464,336.725851 78.9616464,335.058674 C78.9616464,333.391497 90.3230097,332.040194 104.337818,332.040194 C118.353016,332.040194 129.714768,333.391497 129.714768,335.058674" id="Fill-130" fill="#8ECDBD"></path>
            <path d="M129.714768,335.058674 C129.714768,336.725851 118.353016,338.077155 104.337818,338.077155 C90.3230097,338.077155 78.9616464,336.725851 78.9616464,335.058674 C78.9616464,333.391497 90.3230097,332.040194 104.337818,332.040194 C118.353016,332.040194 129.714768,333.391497 129.714768,335.058674" id="Fill-131" fill="#CBC7FF"></path>
            <path d="M130.142023,334.269067 C130.142023,332.573916 118.589102,331.199689 104.338052,331.199689 C90.087001,331.199689 78.5344685,332.573916 78.5344685,334.269067 C78.5344685,334.504515 78.7582765,334.734136 79.1810249,334.95482 C80.8183978,336.433561 91.4566592,337.575447 104.338052,337.575447 C117.219055,337.575447 127.857705,336.433561 129.495078,334.95482 C129.917827,334.734136 130.142023,334.504515 130.142023,334.269067" id="Fill-132" fill="#E85F5B"></path>
            <path d="M130.142023,334.269067 C130.142023,332.573916 118.589102,331.199689 104.338052,331.199689 C90.087001,331.199689 78.5344685,332.573916 78.5344685,334.269067 C78.5344685,334.504515 78.7582765,334.734136 79.1810249,334.95482 C80.8183978,336.433561 91.4566592,337.575447 104.338052,337.575447 C117.219055,337.575447 127.857705,336.433561 129.495078,334.95482 C129.917827,334.734136 130.142023,334.504515 130.142023,334.269067" id="Fill-133" fill="#CBC7FF"></path>
            <path d="M78.534352,321.630146 L78.534352,334.099591 C78.534352,335.794742 90.0868845,337.168968 104.337935,337.168968 C118.588986,337.168968 130.141907,335.794742 130.141907,334.099591 L130.141907,321.630146 L78.534352,321.630146 Z" id="Fill-134" fill="#E85F5B"></path>
            <path d="M130.142023,321.630146 C130.142023,323.325298 118.589102,324.699524 104.338052,324.699524 C90.087001,324.699524 78.5344685,323.325298 78.5344685,321.630146 C78.5344685,319.934995 90.087001,318.560769 104.338052,318.560769 C118.589102,318.560769 130.142023,319.934995 130.142023,321.630146" id="Fill-135" fill="#F4A798"></path>
            <path d="M129.714768,321.342324 C129.714768,323.009502 118.353016,324.360805 104.337818,324.360805 C90.3230097,324.360805 78.9616464,323.009502 78.9616464,321.342324 C78.9616464,319.675147 90.3230097,318.323844 104.337818,318.323844 C118.353016,318.323844 129.714768,319.675147 129.714768,321.342324" id="Fill-136" fill="#F0836D"></path>
            <polygon id="Fill-137" fill="#184657" points="113.125934 248.252437 120.463805 248.252437 120.463805 242.966114 113.125934 242.966114"></polygon>
            <polygon id="Fill-138" fill="#184657" points="163.568211 248.252437 170.906082 248.252437 170.906082 242.966114 163.568211 242.966114"></polygon>
            <polygon id="Fill-139" fill="#184657" points="212.261988 248.252437 219.599859 248.252437 219.599859 242.966114 212.261988 242.966114"></polygon>
            <polygon id="Fill-140" fill="#5190A7" points="113.125934 151.033588 118.636428 151.033588 118.636428 145.523861 113.125934 145.523861"></polygon>
            <polygon id="Fill-141" fill="#5190A7" points="113.125934 160.270472 118.636428 160.270472 118.636428 154.760357 113.125934 154.760357"></polygon>
            <polygon id="Fill-142" fill="#FDD482" points="113.125934 169.507357 118.636428 169.507357 118.636428 163.997629 113.125934 163.997629"></polygon>
            <g transform="translate(25.186884, 230.296577)">
                <mask id="mask-2" fill="white">
                    <use xlink:href="#path-1"></use>
                </mask>
                <g id="Clip-150"></g>
            </g>
            <g transform="translate(60.933992, 215.656681)">
                <mask id="mask-4" fill="white">
                    <use xlink:href="#path-3"></use>
                </mask>
                <g id="Clip-211"></g>
            </g>
            <path d="M419.604496,353.026967 L155.427157,353.026967 C154.473253,353.026967 153.700416,353.799751 153.700416,354.7532 C153.700416,355.70665 154.473253,356.479822 155.427157,356.479822 L419.604496,356.479822 C420.558012,356.479822 421.330848,355.70665 421.330848,354.7532 C421.330848,353.799751 420.558012,353.026967 419.604496,353.026967" id="Fill-220" fill="#9FD4E0"></path>
            <path d="M175.514233,341.485329 C174.060647,342.777576 171.357467,344.976649 170.089221,346.0012 C169.684735,346.327564 169.582156,346.90181 169.851814,347.346287 C170.897805,349.072909 173.627408,353.031241 176.665523,353.031241 L179.219499,353.031241 C179.219499,353.031241 179.147616,352.132185 178.284246,351.844673 C177.712681,351.653906 176.889331,350.108727 176.397809,349.085342 C176.145636,348.560439 176.287847,347.932188 176.743235,347.569691 L179.686931,345.226085 L175.514233,341.485329 Z" id="Fill-221" fill="#FFD1C4"></path>
            <path d="M211.198356,304.436775 C209.543886,308.249408 203.325055,325.500865 195.442818,334.219452 C187.313071,343.211563 180.550263,346.592929 180.550263,346.592929 C178.366581,345.729618 176.12617,342.208382 175.514195,341.485329 C175.514195,341.485329 185.730485,333.140119 190.334868,324.939441 C194.93925,316.738374 200.694923,300.408119 200.694923,300.408119 L211.198356,304.436775 Z" id="Fill-222" fill="#E85F5B"></path>
            <path d="M211.198356,304.436775 C209.543886,308.249408 203.325055,325.500865 195.442818,334.219452 C187.313071,343.211563 180.550263,346.592929 180.550263,346.592929 C178.366581,345.729618 176.12617,342.208382 175.514195,341.485329 C175.514195,341.485329 185.730485,333.140119 190.334868,324.939441 C194.93925,316.738374 200.694923,300.408119 200.694923,300.408119 L211.198356,304.436775 Z" id="Fill-223" fill="#C15653"></path>
            <path d="M227.134067,352.995496 L217.999904,352.995496 C217.516929,352.995496 217.11866,352.619789 217.092626,352.137624 C217.038617,351.107634 216.918942,349.227543 216.680758,346.920848 C218.847732,346.843142 221.918097,346.342328 221.918097,346.342328 L222.117815,349.671632 C222.148511,350.181382 222.481503,350.621585 222.964477,350.787875 C224.033005,351.155812 225.862324,351.791445 226.429227,352.023008 C227.243251,352.359474 227.134067,352.995496 227.134067,352.995496" id="Fill-224" fill="#FFD1C4"></path>
            <path d="M223.429112,346.089241 L221.91802,346.342561 C221.91802,346.342561 218.545358,347.090868 216.378384,347.168185 C215.903569,342.538476 214.844367,333.733247 212.996785,329.111696 C209.733696,320.956865 201.270568,314.724085 196.305994,310.120019 C191.7801,305.921965 191.557846,301.680007 194.435488,296.59533 L206.688975,303.98204 C206.688975,303.98204 215.240693,310.27815 219.616217,321.846207 C223.860409,333.068474 223.429112,346.089241 223.429112,346.089241" id="Fill-225" fill="#E85F5B"></path>
            <path d="M248.471593,306.067158 C248.471593,306.067158 249.199357,304.349472 246.632948,302.112323 C244.402639,300.168125 234.972786,293.341285 232.53732,291.583969 C230.443005,292.032331 228.343251,292.454274 226.227178,292.775975 C228.542969,297.901059 240.229553,301.785182 241.801649,302.667142 C243.576182,303.662553 244.554176,304.064292 245.25241,304.68283 C245.950644,305.300979 246.074205,306.00072 246.34192,305.943994 C246.609635,305.887269 246.416911,304.870489 246.416911,304.870489 C246.655484,305.155281 246.794587,306.41528 247.08173,306.26997 C247.368872,306.12466 247.107374,304.999869 247.107374,304.999869 C247.402288,305.343717 247.354496,306.399739 247.646689,306.441311 C247.938883,306.482884 247.940437,305.323514 247.940437,305.323514 L248.471593,306.067158 Z" id="Fill-226" fill="#F29D7E"></path>
            <path d="M248.471593,306.067158 C248.471593,306.067158 249.199357,304.349472 246.632948,302.112323 C244.402639,300.168125 234.972786,293.341285 232.53732,291.583969 C230.443005,292.032331 228.343251,292.454274 226.227178,292.775975 C228.542969,297.901059 240.229553,301.785182 241.801649,302.667142 C243.576182,303.662553 244.554176,304.064292 245.25241,304.68283 C245.950644,305.300979 246.074205,306.00072 246.34192,305.943994 C246.609635,305.887269 246.416911,304.870489 246.416911,304.870489 C246.655484,305.155281 246.794587,306.41528 247.08173,306.26997 C247.368872,306.12466 247.107374,304.999869 247.107374,304.999869 C247.402288,305.343717 247.354496,306.399739 247.646689,306.441311 C247.938883,306.482884 247.940437,305.323514 247.940437,305.323514 L248.471593,306.067158 Z" id="Fill-227" fill="#F2CDC2"></path>
            <path d="M257.244438,352.455363 C249.441855,353.968294 241.049444,351.897047 234.732308,346.125063 C224.125909,336.433988 223.384156,319.981735 233.075896,309.376064 C242.766082,298.771947 259.219466,298.030245 269.825865,307.72132 L265.860656,312.061187 C257.651644,304.561026 244.918291,305.134883 237.418004,313.342943 C233.675826,317.437648 231.942091,322.660253 232.166288,327.796604 C232.389707,332.955878 234.584269,338.026957 238.697906,341.785584 C243.587489,346.252889 250.083748,347.854016 256.121901,346.684156 L257.244438,352.455363 Z" id="Fill-228" fill="#FEE6B7"></path>
            <path d="M271.482122,344.467016 C267.564317,348.754043 262.539906,351.43023 257.244282,352.455557 L256.122134,346.68435 C260.221006,345.891751 264.108893,343.820893 267.142346,340.501691 C274.643021,332.293631 274.069125,319.561153 265.860501,312.060992 L269.82571,307.721514 C280.430556,317.411034 281.17192,333.863287 271.482122,344.467016" id="Fill-229" fill="#FCC14A"></path>
            <path d="M267.142384,340.501846 C264.108932,343.82066 260.221045,345.891907 256.122173,346.684117 C250.08402,347.853977 243.587372,346.25285 238.69779,341.785546 C234.584152,338.026918 232.389979,332.956228 232.166171,327.796565 C231.941975,322.660214 233.675709,317.43761 237.417888,313.342904 C244.918563,305.134844 257.651527,304.560987 265.86054,312.061148 C274.069164,319.561308 274.64306,332.293786 267.142384,340.501846" id="Fill-230" fill="#FAF8DC"></path>
            <path d="M224.582267,276.602336 C226.212646,280.6104 226.690569,288.25043 232.493646,291.463564 L227.745886,296.019841 L218.824651,290.744397 L224.582267,276.602336 Z" id="Fill-231" fill="#184657"></path>
            <path d="M215.598048,275.987489 C216.464526,279.136904 220.430124,280.515404 221.414335,280.465284 C223.184983,280.375145 222.387667,280.945117 223.585972,279.868115 C223.355947,276.480532 222.988762,275.682494 223.663683,274.474558 C224.408932,273.139573 230.067078,267.622464 230.067078,267.622464 L225.266474,263.277934 C225.266474,263.277934 219.777739,268.812528 218.746124,269.626884 C218.122104,270.11915 216.053046,270.307198 214.983741,270.6763 C214.600626,272.597964 215.079326,274.102348 215.598048,275.987489" id="Fill-232" fill="#FFD1C4"></path>
            <g transform="translate(217.910419, 262.932998)">
                <mask id="mask-6" fill="white">
                    <use xlink:href="#path-5"></use>
                </mask>
                <g id="Clip-234"></g>
            </g>
            <path d="M225.488767,271.17657 C225.69509,271.358013 225.904133,271.512647 226.11473,271.642416 C227.912576,269.640716 229.632712,267.800643 229.632712,267.800643 L226.101908,264.801589 C224.332037,267.124603 223.830412,269.750281 225.488767,271.17657" id="Fill-235" fill="#EEBEB1"></path>
            <path d="M226.707161,257.955206 C225.278831,258.899331 223.273884,259.637147 224.059932,264.436255 L226.336867,264.990686 L227.498648,260.240921 L226.707161,257.955206 Z" id="Fill-236" fill="#333333"></path>
            <path d="M233.077761,267.756662 C232.073345,269.351572 230.643073,271.246428 229.254375,271.593772 C228.335441,271.823781 227.581255,271.339286 226.200329,269.927761 C224.860589,268.558197 224.353524,265.965932 226.02237,263.315 C227.691605,260.664456 229.709374,258.934338 232.571862,260.736334 C235.723824,262.720551 234.746607,265.106118 233.077761,267.756662" id="Fill-237" fill="#FFD1C4"></path>
            <path d="M232.356408,266.187161 C232.263932,266.333636 232.070431,266.377928 231.923946,266.285458 C231.77746,266.193377 231.733165,265.999501 231.825641,265.853026 C231.917729,265.70655 232.11123,265.662258 232.258104,265.754728 C232.404589,265.847198 232.448496,266.040685 232.356408,266.187161" id="Fill-238" fill="#000000"></path>
            <path d="M226.55881,266.150173 C225.519813,265.496279 225.207803,264.123995 225.86213,263.085457 C226.516069,262.046531 227.888447,261.734931 228.927056,262.388825 L226.55881,266.150173 Z" id="Fill-239" fill="#FFC5B5"></path>
            <path d="M227.118874,265.260442 C226.571399,264.915817 226.40704,264.192764 226.752078,263.645327 C227.096338,263.098279 227.819828,262.933931 228.366914,263.278167 L227.118874,265.260442 Z" id="Fill-240" fill="#D9A597"></path>
            <path d="M233.358532,266.560925 L233.550089,268.814392 C233.573014,269.080923 233.307631,269.278684 233.058955,269.180775 L231.923596,268.735521 L233.358532,266.560925 Z" id="Fill-242" fill="#D9A597"></path>
            <path d="M228.664742,262.866677 L227.708507,264.329099 L228.210909,264.68538 C228.405187,264.299182 229.066509,263.468508 229.288374,263.19848 L228.664742,262.866677 Z" id="Fill-243" fill="#333333"></path>
            <path d="M228.927056,255.804342 C226.805184,256.088437 224.367629,257.19029 224.115845,259.995857 C223.890483,262.506141 227.937289,263.305753 228.860496,263.442515 C230.090663,263.625124 231.240788,262.740055 232.497765,261.513081 C232.497765,261.513081 233.56163,261.681703 234.665904,263.699333 C235.653224,263.55752 241.087756,262.618251 239.880125,260.358568 C238.018618,259.372902 236.578696,258.571781 235.560359,257.955206 C231.711003,255.624524 230.2701,255.624524 228.927056,255.804342 Z" id="Fill-244" fill="#333333"></path>
            <path d="M231.613063,264.60612 C231.792187,264.625158 231.967425,264.662845 232.136835,264.719959 C232.305857,264.777461 232.470605,264.849339 232.628747,264.937147 C232.785723,265.025731 232.93726,265.127526 233.072866,265.252244 C233.14164,265.313243 233.204974,265.380458 233.264035,265.451947 C233.292399,265.488858 233.319598,265.526933 233.345632,265.565398 L233.382933,265.623289 L233.398475,265.652428 L233.401972,265.662142 C233.401972,265.662142 233.405858,265.667969 233.401195,265.664861 C233.381767,265.638053 233.301336,265.643492 233.287737,265.671855 C233.326981,265.638053 233.386041,265.642715 233.419846,265.682734 C233.453261,265.721975 233.448599,265.781031 233.408966,265.814833 C233.389927,265.840476 233.304833,265.843584 233.280743,265.814445 L233.268309,265.805509 L233.24927,265.792299 L233.220905,265.774038 L233.16845,265.737905 C233.133869,265.714593 233.098899,265.692447 233.063152,265.671466 L232.854886,265.540921 C232.714617,265.45661 232.573572,265.373465 232.428252,265.294205 C232.141498,265.128691 231.843476,264.978331 231.550894,264.782901 L231.549339,264.782124 C231.505044,264.752596 231.492999,264.692762 231.522918,264.64847 C231.543123,264.617388 231.578481,264.602235 231.613063,264.60612" id="Fill-245" fill="#333333"></path>
            <path d="M231.486704,269.542029 C231.551205,269.603805 231.616482,269.660919 231.679816,269.714148 C231.621144,269.793407 231.55237,269.881215 231.474271,269.970965 C231.374023,269.900253 231.271445,269.816331 231.172751,269.72153 C230.811006,269.373796 230.638876,269.019847 230.788859,268.930873 C230.938452,268.841512 231.124571,269.194296 231.486704,269.542029" id="Fill-246" fill="#ED6D53"></path>
            <path d="M223.631355,274.581326 C223.631355,274.581326 222.792075,276.008392 220.098608,274.615128 C217.376777,273.207876 216.260069,270.131505 216.260069,270.131505 C216.260069,270.131505 208.881011,271.340607 201.12622,283.262614 C196.969453,289.653913 193.356275,297.218958 193.356275,297.218958 C193.356275,297.218958 198.104812,304.436658 211.558158,304.724558 C213.141133,301.65518 216.297758,295.243677 222.230224,288.921925 C225.643684,285.284129 226.96011,280.695215 223.631355,274.581326" id="Fill-247" fill="#184657"></path>
            <path d="M224.628194,276.836231 C226.548824,280.84274 225.539357,291.367597 225.539357,291.367597 L222.949635,287.866953 C223.898487,286.235131 224.752532,279.529512 224.628194,276.836231" id="Fill-248" fill="#113340"></path>
            <path d="M239.880125,311.84633 C239.880125,311.84633 235.994958,310.263852 231.198629,311.510641 C231.198629,311.510641 233.26147,308.776952 234.795876,307.817675 C236.33067,306.858786 239.880125,311.84633 239.880125,311.84633" id="Fill-249" fill="#CBC7FF"></path>
            <path d="M209.469944,277.252073 C209.579517,282.219803 212.020811,295.157035 215.191424,298.010003 L219.148085,292.363125 L209.469944,277.252073 Z" id="Fill-250" fill="#113340"></path>
            <path d="M209.519679,276.452442 C208.411908,280.481874 214.085207,287.679759 220.358824,294.64103 C226.632441,301.601913 232.162752,306.642297 235.512489,309.132767 C238.861838,311.623237 240.473954,312.611266 240.886212,312.112783 C241.087484,311.869564 240.6931,311.515226 240.238101,311.216059 C240.730013,311.444125 241.254174,311.606142 241.441846,311.379629 C241.640787,311.138741 241.236689,310.728843 240.793736,310.384995 C241.287201,310.667456 241.849052,310.887363 242.083351,310.604126 C242.330473,310.304959 241.752302,309.786661 241.168692,309.372489 C241.642341,309.621536 242.141635,309.794043 242.313765,309.53606 C242.626552,309.067106 240.102495,307.394878 239.322276,306.893675 C239.68441,307.12213 240.394689,307.561168 240.772754,307.74028 C241.052902,307.873157 241.370741,307.672287 241.445732,307.504443 C241.520334,307.336598 241.352867,307.202556 240.776251,306.772066 C239.623018,305.911086 237.196877,303.951735 231.582639,298.561675 C225.968011,293.172003 221.381502,284.268088 219.208311,279.474031 C215.946776,272.280031 210.694283,272.180567 209.519679,276.452442" id="Fill-251" fill="#FFD1C4"></path>
            <path d="M221.278418,295.583329 C221.978595,296.354948 222.66867,297.102088 223.347088,297.823975 C223.428296,297.759479 223.504453,297.685659 223.572839,297.602514 C224.111377,296.951339 224.020455,295.987399 223.369236,295.44851 C222.742496,294.930212 221.826282,294.997039 221.278418,295.583329" id="Fill-252" fill="#ED6D53"></path>
            <path d="M222.570443,297.112384 C224.531483,296.377288 226.637454,294.335957 227.341516,293.614848 C223.701917,288.664991 220.813395,282.944681 219.216043,279.422278 C215.925367,272.16456 210.626635,272.06432 209.441541,276.373881 C208.323667,280.439058 214.047478,287.701051 220.376659,294.724098 C221.119577,295.548167 221.85045,296.342709 222.570443,297.112384" id="Fill-253" fill="#265161"></path>
            <path d="M226.429033,352.022853 C225.86213,351.79129 224.032811,351.156045 222.964283,350.788108 C222.710556,350.700689 222.499959,350.536342 222.351142,350.327313 C222.046515,350.520023 221.610944,350.732937 221.054921,350.837451 C220.151918,351.006461 217.920833,350.755472 217.001122,350.638913 C217.042697,351.243464 217.072616,351.750494 217.092821,352.137469 C217.118465,352.620022 217.516735,352.99534 218.000098,352.99534 L227.133872,352.99534 C227.133872,352.99534 227.243445,352.359707 226.429033,352.022853" id="Fill-254" fill="#E289A9"></path>
            <path d="M226.985677,352.443979 L217.879879,352.443979 C217.536396,352.443979 217.237596,352.251269 217.083729,351.967254 C217.086448,352.024368 217.089945,352.084979 217.092665,352.13743 C217.11831,352.619983 217.516968,352.995302 217.999942,352.995302 L227.134105,352.995302 C227.134105,352.995302 227.178789,352.725274 226.985677,352.443979" id="Fill-255" fill="#0D232B"></path>
            <path d="M179.219538,353.031357 C179.219538,353.031357 179.147266,352.132301 178.284285,351.844402 C177.712719,351.654022 176.88937,350.108843 176.397848,349.085458 C176.310811,348.903627 176.273898,348.710139 176.277395,348.519372 C173.835324,348.8131 172.627693,347.306773 171.23511,345.071178 C170.793711,345.430568 170.39855,345.751104 170.08926,346.000928 C169.684774,346.327681 169.582195,346.901926 169.851853,347.346403 C170.897844,349.073025 173.627058,353.031357 176.665562,353.031357 L179.219538,353.031357 Z" id="Fill-256" fill="#E289A9"></path>
            <path d="M177.02517,352.551757 C173.987055,352.551757 171.257452,348.593425 170.211461,346.866803 C170.042439,346.588228 170.020292,346.258756 170.125979,345.971244 C170.114322,345.980569 170.101111,345.991836 170.089066,346.001161 C169.68458,346.327525 169.58239,346.901771 169.851659,347.346636 C170.89765,349.07287 173.627252,353.031202 176.665368,353.031202 L179.219343,353.031202 C179.219343,353.031202 179.20147,352.810129 179.078298,352.551757 L177.02517,352.551757 Z" id="Fill-257" fill="#184657"></path>
            <path d="M214.212303,290.109774 C214.152854,290.084908 208.207178,287.574235 205.154297,284.80791 L205.347798,284.594996 C208.363377,287.327908 214.264758,289.819543 214.323819,289.844409 L214.212303,290.109774 Z" id="Fill-258" fill="#E6E5CE"></path>
            <path d="M212.102214,293.083107 C212.042376,293.058242 206.0967,290.547957 203.044208,287.781632 L203.237708,287.568329 C206.253676,290.30163 212.15428,292.792876 212.213341,292.817742 L212.102214,293.083107 Z" id="Fill-259" fill="#E6E5CE"></path>
            <path d="M210.417048,295.726541 C210.356045,295.704395 204.288362,293.505322 201.096767,290.901013 L201.278611,290.677997 C204.432128,293.251224 210.453961,295.433979 210.514576,295.455736 L210.417048,295.726541 Z" id="Fill-260" fill="#E6E5CE"></path>
            <path d="M208.673134,299.031523 C208.611742,299.011708 202.476839,297.007287 199.203647,294.506327 L199.378109,294.277872 C202.612445,296.749304 208.700721,298.738183 208.762113,298.757998 L208.673134,299.031523 Z" id="Fill-261" fill="#E6E5CE"></path>
            <path d="M539.14224,343.64349 C540.379012,345.144766 541.025569,345.452092 542.12013,346.660417 C542.469441,347.045449 542.481875,347.628242 542.14694,348.026096 C540.846833,349.570498 537.538672,353.059875 534.536692,352.590532 C531.622137,352.134788 532.013412,352.196176 532.013412,352.196176 C532.013412,352.196176 532.223232,351.318877 533.120795,351.16774 C533.714508,351.067888 534.766716,349.668407 535.410553,348.733218 C535.740825,348.253774 535.697695,347.610758 535.3037,347.182211 L532.756719,344.412389 L539.14224,343.64349 Z" id="Fill-262" fill="#307B97"></path>
            <path d="M507.487089,298.393908 C508.532692,302.416347 512.449331,321.272816 518.890804,331.10415 C525.53355,341.244364 534.393781,347.096385 534.393781,347.096385 C536.685093,346.580807 538.425821,344.263233 539.142318,343.643529 C539.142318,343.643529 528.653262,331.538137 525.370745,322.72436 C523.499073,317.699128 521.300237,308.53723 520.43609,304.318584 C521.587768,299.472853 521.803805,296.019997 521.803805,296.019997 L507.487089,298.393908 Z" id="Fill-263" fill="#41B093"></path>
            <path d="M507.487089,298.393908 C508.532692,302.416347 512.449331,321.272816 518.890804,331.10415 C525.53355,341.244364 534.393781,347.096385 534.393781,347.096385 C536.685093,346.580807 538.425821,344.263233 539.142318,343.643529 C539.142318,343.643529 528.653262,331.538137 525.370745,322.72436 C523.499073,317.699128 521.300237,308.53723 520.43609,304.318584 C521.587768,299.472853 521.803805,296.019997 521.803805,296.019997 L507.487089,298.393908 Z" id="Fill-264" fill="#25886E"></path>
            <path d="M477.284125,352.499966 L487.616981,352.621653 C488.16329,352.628181 488.619455,352.20857 488.654813,351.663464 C488.730193,350.499043 488.934962,347.514753 489.235315,344.908501 C486.784695,344.791943 483.21659,344.512202 483.21659,344.512202 L483.003273,348.806611 C482.961698,349.383188 482.578971,349.877008 482.030719,350.058451 C480.81726,350.46019 478.738876,351.154879 478.09504,351.408977 C477.169112,351.779245 477.284125,352.499966 477.284125,352.499966" id="Fill-265" fill="#307B97"></path>
            <path d="M482.581613,347.87861 C482.581613,347.87861 487.803022,348.38292 489.959893,348.602439 C490.736616,344.013137 494.147745,332.006819 495.578406,327.774963 C498.391548,319.453841 505.631114,309.689335 510.89643,306.357311 C515.465454,303.466268 519.081352,299.17963 519.486615,296.658855 L506.062022,288.810572 C506.062022,288.810572 493.377628,303.407601 488.266569,319.798466 C484.694189,331.252685 482.581613,347.87861 482.581613,347.87861" id="Fill-266" fill="#41B093"></path>
            <path d="M486.144239,237.827431 C486.144239,237.827431 487.659994,236.739939 490.407082,238.751741 C492.79359,240.500121 505.615145,251.895283 507.864881,253.884939 C507.887806,256.02651 507.937541,258.167692 508.088689,260.30227 C502.579749,259.170097 492.133046,244.926241 490.927358,243.586594 C489.565859,242.07444 488.958936,241.208798 488.202418,240.663303 C487.4459,240.118197 486.735621,240.151222 486.732512,239.877698 C486.729015,239.604174 487.762962,239.568817 487.762962,239.568817 C487.43269,239.398642 486.173381,239.540066 486.251869,239.227689 C486.330358,238.915701 487.485145,238.92386 487.485145,238.92386 C487.084932,238.711334 486.065363,238.990298 485.960453,238.714443 C485.855931,238.438199 486.986628,238.182158 486.986628,238.182158 L486.144239,237.827431 Z" id="Fill-267" fill="#F29D7E"></path>
            <path d="M486.144239,237.827431 C486.144239,237.827431 487.659994,236.739939 490.407082,238.751741 C492.79359,240.500121 505.615145,251.895283 507.864881,253.884939 C507.887806,256.02651 507.937541,258.167692 508.088689,260.30227 C502.579749,259.170097 492.133046,244.926241 490.927358,243.586594 C489.565859,242.07444 488.958936,241.208798 488.202418,240.663303 C487.4459,240.118197 486.735621,240.151222 486.732512,239.877698 C486.729015,239.604174 487.762962,239.568817 487.762962,239.568817 C487.43269,239.398642 486.173381,239.540066 486.251869,239.227689 C486.330358,238.915701 487.485145,238.92386 487.485145,238.92386 C487.084932,238.711334 486.065363,238.990298 485.960453,238.714443 C485.855931,238.438199 486.986628,238.182158 486.986628,238.182158 L486.144239,237.827431 Z" id="Fill-268" fill="#F1BFB1"></path>
            <polygon id="Fill-269" fill="#035E80" points="489.294803 240.322136 459.845792 216.246947 460.209869 215.801305 489.658879 239.876882"></polygon>
            <path d="M524.285665,263.071936 C519.374323,261.004186 515.560262,259.564298 512.067536,257.172903 C510.699433,256.236549 500.544146,246.90564 498.578055,245.562885 L495.89197,249.639329 C497.834359,251.623546 512.556339,265.619908 515.113035,266.597058 L524.285665,263.071936 Z" id="Fill-270" fill="#184657"></path>
            <path d="M526.923995,270.080802 C523.762319,270.902541 520.587821,268.155642 520.139816,267.277955 C519.333952,265.698974 519.238367,266.674181 519.572914,265.098308 C522.623074,263.605969 523.498101,263.525544 524.207604,262.3382 C524.991709,261.025749 526.947309,253.368623 526.947309,253.368623 L533.108634,255.358668 C533.108634,255.358668 531.053952,262.877089 530.86356,264.177884 C530.748547,264.964266 531.618523,266.850574 531.833006,267.961377 C530.359215,269.252847 528.816649,269.588925 526.923995,270.080802" id="Fill-271" fill="#FFD1C4"></path>
            <path d="M526.153723,259.109797 C525.893391,259.021601 525.655206,258.917864 525.437227,258.80014 C526.274175,256.242843 527.009711,253.833964 527.009711,253.833964 L531.371635,255.395462 C530.241716,258.088743 528.21773,259.834403 526.153723,259.109797" id="Fill-274" fill="#EAB1A1"></path>
            <path d="M525.327654,250.827761 C524.446799,252.494161 523.519705,254.679247 523.911758,256.055805 C524.171313,256.966905 524.967852,257.377969 526.880322,257.869846 C528.736063,258.34696 531.235641,257.491419 532.698941,254.721986 C534.162241,251.952941 534.653763,249.340473 531.663052,247.760326 C528.370044,246.020494 526.790954,248.058328 525.327654,250.827761" id="Fill-275" fill="#FFD1C4"></path>
            <path d="M537.486333,252.417155 C538.700181,255.8331 535.168211,256.426772 535.883153,259.23467 C533.393678,260.898739 528.34945,259.993856 531.090321,255.28644 L534.625399,251.908182 L537.486333,252.417155 Z" id="Fill-276" fill="#0D232B"></path>
            <path d="M527.047673,250.668969 C526.966853,250.82205 527.025136,251.011652 527.178616,251.092854 C527.331318,251.173668 527.521322,251.115001 527.60253,250.96192 C527.683349,250.80884 527.624289,250.619238 527.471587,250.538035 C527.318107,250.457221 527.128492,250.515501 527.047673,250.668969" id="Fill-277" fill="#000000"></path>
            <path d="M529.974739,255.672988 C531.059975,256.246456 532.404765,255.831507 532.977885,254.746346 C533.551393,253.661185 533.136804,252.316487 532.05118,251.743019 L529.974739,255.672988 Z" id="Fill-278" fill="#F5C2B4"></path>
            <path d="M530.465757,254.743588 C531.03771,255.045863 531.746436,254.827122 532.048343,254.255207 C532.351028,253.683293 532.131883,252.974616 531.559929,252.672341 L530.465757,254.743588 Z" id="Fill-279" fill="#C49D92"></path>
            <path d="M526.223546,249.98714 L524.17547,250.946418 C523.933012,251.059868 523.894156,251.388175 524.103199,251.555243 L525.055937,252.316371 L526.223546,249.98714 Z" id="Fill-281" fill="#DFA899"></path>
            <path d="M531.768039,252.209059 L530.978494,253.767448 L530.418586,253.510242 C530.656771,253.14891 531.046103,252.16127 531.168887,251.834517 L531.768039,252.209059 Z" id="Fill-282" fill="#0D232B"></path>
            <path d="M528.227793,243.98336 C529.773856,243.274683 529.443584,245.436458 531.680886,245.023451 C534.828963,244.441824 537.198375,246.848371 536.809431,248.924281 C536.560755,250.251107 539.875522,252.100115 537.408972,254.482963 C535.596749,256.234062 531.321472,253.450642 530.741748,252.719042 C529.968911,251.744612 529.550825,251.098488 529.986396,249.396732 C529.986396,249.396732 530.350084,247.374828 528.050224,247.425725 C526.899322,247.049241 525.863433,245.067355 528.227793,243.98336" id="Fill-283" fill="#0D232B"></path>
            <path d="M528.666783,250.66555 C528.351276,250.50975 528.071905,250.326365 527.785151,250.160851 C527.644494,250.074598 527.501505,249.993784 527.358517,249.914136 L527.141315,249.798743 C527.105179,249.778539 527.069043,249.759113 527.031353,249.740852 L526.974236,249.713655 L526.943928,249.698114 L526.922946,249.6884 L526.908958,249.681795 C526.871657,249.67519 526.832024,249.599816 526.844847,249.571065 C526.854172,249.519779 526.90313,249.486365 526.954031,249.495302 C527.004932,249.504626 527.038736,249.553581 527.029411,249.604867 C527.046507,249.578835 527.011537,249.506569 526.97851,249.503072 C526.973459,249.499964 526.980453,249.500741 526.980453,249.500741 L526.990944,249.499187 L527.023582,249.498021 L527.092357,249.501518 C527.138595,249.504626 527.185221,249.509289 527.231459,249.515117 C527.32277,249.530658 527.412915,249.552027 527.499951,249.581166 C527.675578,249.636338 527.839549,249.716763 527.994971,249.808456 C528.149616,249.901703 528.294159,250.008548 528.428599,250.126661 C528.562262,250.244385 528.682714,250.378039 528.78879,250.52296 C528.820263,250.566087 528.810549,250.626309 528.767808,250.65778 C528.737889,250.679926 528.699422,250.681869 528.668338,250.666328 L528.666783,250.66555 Z" id="Fill-284" fill="#0D232B"></path>
            <path d="M524.574828,253.097469 C524.489345,253.072603 524.406972,253.04424 524.329261,253.016266 C524.290016,253.106405 524.248441,253.210142 524.209585,253.322427 C524.321101,253.373713 524.444662,253.420725 524.575993,253.458801 C525.057802,253.59906 525.450632,253.571086 525.453362,253.397025 C525.455683,253.222575 525.056636,253.237339 524.574828,253.097469" id="Fill-285" fill="#ED6D53"></path>
            <path d="M524.343754,262.086394 C524.343754,262.086394 523.265901,263.759399 525.544779,264.798325 C527.991124,265.913403 531.300063,265.266114 531.300063,265.266114 C531.300063,265.266114 534.681662,272.999392 527.287062,286.025986 C523.523513,292.656619 521.803766,297.458836 521.803766,297.458836 C521.803766,297.458836 511.73163,297.458836 502.906369,289.881358 C505.976346,280.768803 510.260948,278.721644 512.954414,270.481725 C514.563034,265.561785 517.307402,262.748059 524.343754,262.086394" id="Fill-286" fill="#184657"></path>
            <path d="M525.853175,273.676986 C521.419368,275.920352 513.3141,279.642069 508.853872,278.682792 C510.688631,276.704403 513.062705,270.589348 513.566273,268.826981 L525.853175,273.676986 Z" id="Fill-287" fill="#0E3746"></path>
            <path d="M525.389512,273.866511 C521.381562,275.049969 514.077107,269.513822 506.998791,263.372735 C499.920475,257.232037 490.687231,248.101221 488.134032,244.799503 C485.580834,241.497785 484.562818,239.904429 485.053176,239.482875 C485.292914,239.276955 485.654271,239.664318 485.962007,240.114234 C485.724988,239.626242 485.552858,239.105613 485.776277,238.91368 C486.012908,238.710091 486.430605,239.106779 486.783025,239.542708 C486.49122,239.054716 486.260418,238.497177 486.5394,238.257843 C486.833537,238.004523 487.36275,238.57294 487.788218,239.14874 C487.530217,238.680174 487.348373,238.184023 487.602877,238.006854 C488.065646,237.685541 489.785393,240.177564 490.301395,240.948017 C490.066319,240.590182 489.613652,239.888499 489.427534,239.513957 C489.289208,239.236159 489.484651,238.914846 489.650564,238.836751 C489.816866,238.758657 489.954415,238.923782 490.395425,239.4922 C491.277835,240.629035 493.28317,243.017322 498.778122,248.528992 C504.273074,254.040273 517.351464,262.154698 522.185872,264.237212 C529.440592,267.362538 529.638755,272.611951 525.389512,273.866511" id="Fill-288" fill="#FFD1C4"></path>
            <path d="M494.261048,251.701563 C494.959282,249.727059 497.13869,248.202472 497.846638,247.485248 C503.697895,253.528037 518.685259,262.698482 522.237433,264.228509 C529.556653,267.38142 529.756759,272.677068 525.469438,273.943284 C521.425741,275.137233 514.056785,269.551742 506.915135,263.356262 C506.077409,262.629324 495.268572,253.044318 494.261048,251.701563" id="Fill-289" fill="#265161"></path>
            <path d="M478.095001,351.409133 C478.738838,351.154646 480.817221,350.460345 482.03068,350.058218 C482.318988,349.963028 482.559115,349.780031 482.730468,349.54536 C483.072786,349.76721 483.562366,350.014314 484.190271,350.13942 C485.209841,350.34301 487.736229,350.088912 488.778335,349.969633 C488.723549,350.652667 488.683139,351.225747 488.654774,351.663231 C488.619416,352.208725 488.163252,352.628336 487.616943,352.621731 L477.284086,352.500122 C477.284086,352.500122 477.169073,351.779012 478.095001,351.409133" id="Fill-290" fill="#035E80"></path>
            <path d="M477.459441,351.878087 L487.760048,351.999308 C488.14938,352.00397 488.489366,351.790279 488.667713,351.471297 C488.663051,351.535405 488.658388,351.603786 488.654502,351.663231 C488.619532,352.208725 488.163368,352.628336 487.617059,352.621731 L477.284202,352.500122 C477.284202,352.500122 477.237187,352.193572 477.459441,351.878087" id="Fill-291" fill="#E6E5CE"></path>
            <path d="M532.013529,352.196059 C532.013529,352.196059 532.223349,351.318761 533.120912,351.168012 C533.714625,351.067771 534.766833,349.66829 535.41067,348.733102 C535.524905,348.567588 535.591348,348.381871 535.616993,348.192658 C537.98485,348.86015 539.41046,347.55819 541.131372,345.564649 C541.511768,345.987757 541.85292,346.365407 542.120246,346.6603 C542.46878,347.045332 542.481603,347.628514 542.147056,348.026368 C540.846561,349.570381 537.5384,353.059759 534.536808,352.590804 C532.545073,352.279204 532.097457,352.209269 532.013529,352.196059" id="Fill-292" fill="#035E80"></path>
            <path d="M534.255339,352.061162 C537.257318,352.530505 540.56548,349.041127 541.865587,347.496725 C542.075407,347.24729 542.148455,346.925588 542.088229,346.624866 C542.098332,346.636134 542.109988,346.649344 542.120091,346.660223 C542.469014,347.045255 542.481836,347.628436 542.14729,348.02629 C540.846794,349.570303 537.538244,353.059681 534.537041,352.590727 C532.545306,352.279126 532.097301,352.209191 532.013373,352.195981 C532.013373,352.195981 532.06544,351.980348 532.227079,351.744122 C532.592321,351.801236 533.210124,351.897591 534.255339,352.061162" id="Fill-293" fill="#E6E5CE"></path>
            <path d="M363.23702,305.084258 C360.140621,305.084258 357.630552,307.594154 357.630552,310.69034 L357.630552,353.027161 L368.843876,353.027161 L368.843876,310.69034 C368.843876,307.594154 366.333807,305.084258 363.23702,305.084258" id="Fill-294" fill="#CBC7FF"></path>
            <path d="M134.36263,173.91576 C134.359133,173.91576 134.355247,173.91576 134.352139,173.91576 C134.192831,173.909544 134.06927,173.776278 134.075099,173.61737 L137.912084,68.7783055 C137.917524,68.6197857 138.051576,68.4970106 138.210107,68.5015444 C138.369026,68.5075009 138.492975,68.6407662 138.487147,68.7996745 L134.650161,173.638351 C134.644721,173.793762 134.516498,173.91576 134.36263,173.91576" id="Fill-295" fill="#035E80"></path>
            <path d="M138.870845,64.6166178 C138.055656,65.0960623 137.096701,66.870862 137.096701,66.870862 C137.096701,66.870862 138.72708,70.0362064 138.870845,69.9880288 C139.014999,69.9402398 140.405639,68.2614067 141.173425,67.3025176 L138.870845,64.6166178 Z" id="Fill-296" fill="#FFC0AF"></path>
            <path d="M136.281123,65.0962178 C137.767736,65.9595288 139.542658,67.1107397 139.494865,68.4534954 C139.446296,69.796251 139.110584,71.1390066 139.110584,71.1390066 L134.21867,67.8780842 L136.281123,65.0962178 Z" id="Fill-297" fill="#FFD1C4"></path>
            <path d="M129.518197,32.8316184 C130.003892,32.4539683 130.939145,32.8677515 130.939145,32.8677515 L129.680225,33.6230516 L129.518197,32.8316184 Z" id="Fill-298" fill="#E85F5B"></path>
            <path d="M125.681212,103.128023 C125.681212,103.128023 125.201734,104.518956 125.441473,104.902434 C125.681212,105.2863 126.160689,105.190334 129.086901,105.190334 C132.012335,105.190334 135.225689,105.526022 135.369843,104.9984 C135.513609,104.470778 134.554265,104.327022 133.115444,103.895367 C131.676623,103.463711 131.196757,102.792334 131.196757,102.792334 L125.681212,103.128023 Z" id="Fill-299" fill="#FCC14A"></path>
            <path d="M135.234199,104.624636 C134.685947,104.996458 131.740696,104.7105 129.038681,104.7105 C126.112858,104.7105 125.633381,104.806467 125.393642,104.422601 C125.389368,104.416384 125.387036,104.407448 125.383539,104.400066 C125.364889,104.610649 125.374991,104.795977 125.441434,104.902434 C125.681173,105.2863 126.16065,105.190334 129.086862,105.190334 C132.012296,105.190334 135.226039,105.526022 135.369805,104.9984 C135.410991,104.847263 135.358925,104.728373 135.234199,104.624636" id="Fill-300" fill="#184657"></path>
            <path d="M103.88756,101.955598 C103.88756,101.955598 103.146974,103.170139 103.33076,103.583534 C103.514936,103.996928 104.071736,103.659297 106.819989,104.662478 C109.086433,105.490045 113.035323,105.406511 113.294878,104.986511 C113.800389,104.169435 112.393818,104.498908 111.028822,103.871434 C109.663827,103.243571 109.3965,102.39075 109.3965,102.39075 L103.88756,101.955598 Z" id="Fill-301" fill="#FCC14A"></path>
            <path d="M113.31042,104.526765 C112.687177,104.885377 109.053794,104.915294 106.915962,104.135128 C104.167709,103.131947 103.610909,103.46919 103.426734,103.055795 C103.413523,103.026655 103.406529,102.992465 103.401866,102.955555 C103.314441,103.20499 103.267426,103.441604 103.33076,103.583417 C103.514936,103.996812 104.072124,103.659569 106.819989,104.66275 C109.086433,105.489928 113.035323,105.406783 113.294878,104.986395 C113.435535,104.759105 113.424267,104.621955 113.31042,104.526765" id="Fill-302" fill="#184657"></path>
            <path d="M125.633419,58.5259233 C128.415088,68.3094677 129.566378,71.9546452 131.005199,84.3281227 C132.44402,96.7012118 131.724804,103.103778 131.724804,103.103778 C130.431691,103.529994 126.522046,103.529994 125.201734,103.295712 C125.201734,103.295712 124.290572,91.138256 123.235255,84.1361895 C122.179938,77.134123 115.752841,59.2932678 115.752841,59.2932678 L125.633419,58.5259233 Z" id="Fill-303" fill="#0D232B"></path>
            <path d="M111.532312,50.7804069 C107.311822,57.9503179 107.593525,63.3586391 107.695327,77.9012731 C107.7913,91.6175063 103.690485,102.036684 103.690485,102.036684 C105.083845,102.710781 108.762689,103.90745 110.633195,103.475406 C110.633195,103.475406 116.424615,90.9461285 117.000066,78.4770729 C117.583676,65.8281284 117.287985,60.0604179 117.287985,60.0604179 L125.129813,59.1974954 L111.532312,50.7804069 Z" id="Fill-304" fill="#0D232B"></path>
            <path d="M121.712545,35.8531293 C117.107773,40.0974183 113.618933,46.7517515 111.53239,50.7804069 C111.53239,50.7804069 114.697952,55.4563513 120.165705,57.614629 C125.633458,59.7725181 125.849107,59.125229 125.849107,59.125229 C125.849107,59.125229 132.540032,48.4783736 136.209162,45.0970072 C136.209162,45.0970072 134.554304,40.9249847 129.302588,39.1983625 C124.050872,37.4717404 121.712545,35.8531293 121.712545,35.8531293" id="Fill-305" fill="#E85F5B"></path>
            <path d="M119.877941,39.2702404 C118.510614,43.4426515 118.726651,56.8950736 118.726651,56.8950736 C118.726651,56.8950736 123.546682,59.0533512 125.130046,59.1974954 L129.374238,53.8019956 C129.374238,53.8019956 126.640361,47.7110292 125.633614,43.274807 C124.626089,38.8385849 119.877941,39.2702404 119.877941,39.2702404" id="Fill-306" fill="#CB403C"></path>
            <path d="M128.313442,33.7308295 C120.974794,34.2343628 119.587262,37.3173391 119.374334,42.2197958 C119.158297,47.1836401 120.200403,53.4921827 124.554168,60.060651 C128.654982,66.2471956 134.554421,68.477351 134.554421,68.477351 L136.928495,64.8803511 C136.928495,64.8803511 132.758517,62.2550619 129.44647,57.6867399 C125.273772,51.9314624 125.633575,43.2746516 125.633575,43.2746516 L135.033898,44.7137624 C135.033898,44.7137624 139.254777,47.4952402 140.693598,53.2501292 C142.132419,59.0054067 138.583353,64.3768178 138.583353,64.3768178 L140.957427,67.9738177 C140.957427,67.9738177 144.458701,66.0552623 145.27389,58.4059068 C146.176893,49.9352013 141.940473,42.2197958 138.391407,38.9584849 C134.84234,35.6971739 128.313442,33.7308295 128.313442,33.7308295" id="Fill-307" fill="#E85F5B"></path>
            <path d="M133.816981,37.6516293 C133.762972,37.0583458 133.816981,36.9682071 134.061771,36.4837116 C134.552128,35.5123896 138.61875,31.6072863 138.61875,31.6072863 L135.202182,28.5153739 C135.202182,28.5153739 131.296422,32.4542792 130.562052,33.0335756 C130.117933,33.3840286 128.984128,33.5044726 128.223336,33.7667295 C127.95057,35.134351 130.759438,38.3350515 133.816981,37.6516293" id="Fill-308" fill="#FFD1C4"></path>
            <g transform="translate(130.096873, 28.261587)">
                <mask id="mask-8" fill="white">
                    <use xlink:href="#path-7"></use>
                </mask>
                <g id="Clip-310"></g>
                <path d="M3.8509737,8.46448903 C3.87700692,8.39066855 3.91508536,8.31102014 3.96482046,8.22204704 C4.49519874,7.27209406 8.52218808,3.34562173 8.52218808,3.34562173 L5.10561945,0.253709324 C5.10561945,0.253709324 1.19947087,4.19261457 0.46510095,4.77191106 C0.346980074,4.8655465 0.208265755,4.9234373 0.0516778833,4.95257696 L3.8509737,8.46448903 Z" id="Fill-309" fill="#FFD1C4" mask="url(#mask-8)"></path>
            </g>
            <path d="M134.605477,34.9279257 C134.751962,35.0573057 134.900779,35.1668709 135.050762,35.2597293 C136.330275,33.8349941 137.554225,32.5252634 137.554225,32.5252634 L135.041436,30.3910745 C133.782128,32.0442647 133.425045,33.9126998 134.605477,34.9279257" id="Fill-311" fill="#F4B6A5"></path>
            <path d="M135.489596,26.3931906 C134.314604,28.2153908 132.918136,31.6915582 134.806127,33.5153125 C137.971689,36.5726459 140.165862,32.6757017 141.748448,30.1817352 L135.489596,26.3931906 Z" id="Fill-312" fill="#FFD1C4"></path>
            <path d="M135.489596,26.3931906 C135.489596,26.3931906 138.480697,30.1817352 143.379605,31.0932238 C146.473284,31.668635 147.1925,26.6810905 144.026938,25.8896573 C144.026938,25.8896573 143.174059,23.8526006 140.957349,23.2278463 C137.384193,22.2207795 135.489596,26.3931906 135.489596,26.3931906" id="Fill-313" fill="#333333"></path>
            <path d="M134.266618,28.599335 L135.417908,28.4551908 L136.61699,26.9208905 L136.281278,25.1223905 C136.281278,25.1223905 135.417908,26.2732129 135.034015,26.9445907 C134.607381,27.6909546 134.266618,28.599335 134.266618,28.599335" id="Fill-314" fill="#333333"></path>
            <polygon id="Fill-315" fill="#333333" points="137.029753 27.713567 136.472564 28.4552685 136.904638 28.6472017 137.600152 28.023613"></polygon>
            <path d="M138.561205,29.7611527 C138.502145,29.8547882 138.378196,29.8831508 138.284554,29.8240944 C138.190912,29.765038 138.162936,29.6410973 138.221608,29.5474619 C138.280668,29.4538264 138.404617,29.4258524 138.498259,29.4849088 C138.591901,29.5435766 138.619877,29.6675173 138.561205,29.7611527" id="Fill-316" fill="#000000"></path>
            <path d="M139.849073,30.6006081 L139.843244,32.0463239 C139.842467,32.2176651 139.662954,32.3283958 139.509475,32.2518556 L138.812018,31.9041223 L139.849073,30.6006081 Z" id="Fill-318" fill="#F4B6A5"></path>
            <path d="M135.787074,29.4923297 C135.144015,29.0428018 134.986261,28.1569561 135.436209,27.5135523 C135.885379,26.8705371 136.771285,26.713183 137.414345,27.1627108 L135.787074,29.4923297 Z" id="Fill-319" fill="#FFC0AF"></path>
            <path d="M136.172211,28.9412015 C135.833002,28.7045875 135.750239,28.2375758 135.98687,27.8983901 C136.223888,27.559593 136.690544,27.4768364 137.029753,27.7134504 L136.172211,28.9412015 Z" id="Fill-320" fill="#F3A792"></path>
            <path d="M128.22353,33.766885 C129.122648,33.1192074 129.518197,32.8316961 129.518197,32.8316961 C129.518197,32.8316961 130.165919,34.7739517 131.065037,35.7452737 C131.964543,36.7162073 133.187327,37.7955404 133.187327,37.7955404 C133.187327,37.7955404 130.993154,37.7594072 129.518197,36.5363184 C128.043629,35.3136182 128.22353,33.766885 128.22353,33.766885" id="Fill-321" fill="#EE8C89"></path>
            <path d="M133.151425,37.8134515 L134.44648,35.9069406 L134.896039,36.5907513 C134.896039,36.5907513 134.410344,37.4719347 133.780885,37.6696959 C133.151425,37.8674571 133.151425,37.8134515 133.151425,37.8134515" id="Fill-322" fill="#EE8C89"></path>
            <polygon id="Fill-323" fill="#184657" opacity="0.449999988" points="102.883222 111.184906 136.281123 111.184906 136.281123 105.238084 102.883222 105.238084"></polygon>
            <path d="M216.521256,78.8341308 C215.349372,86.7232087 215.017934,101.522272 215.017934,101.522272 L219.214334,101.985398 C219.214334,101.985398 221.570534,84.9565681 222.637119,79.369135 L216.521256,78.8341308 Z" id="Fill-324" fill="#FFD1C4"></path>
            <path d="M237.815535,78.7125602 C239.093106,86.5853198 239.623873,101.378166 239.623873,101.378166 L235.434079,101.898018 C235.434079,101.898018 232.849019,84.9022129 231.707443,79.329544 L237.815535,78.7125602 Z" id="Fill-325" fill="#FFD1C4"></path>
            <path d="M217.337844,53.1544346 C215.994607,61.69119 215.131237,79.6280118 215.131237,79.6280118 C215.131237,79.6280118 216.570058,80.6832561 219.927566,80.7788342 C223.285075,80.8748008 224.24403,80.3953562 224.24403,80.3953562 L226.871053,58.7476956 C226.892812,58.5713035 227.148482,58.5724691 227.168298,58.7488612 L229.520225,79.9155231 C229.520225,79.9155231 230.671126,80.5869009 234.412139,80.3953562 C238.153151,80.203423 238.728991,78.7647007 238.728991,78.7647007 C238.728991,78.7647007 238.441459,61.3073235 235.467456,54.2092903 L217.337844,53.1544346 Z" id="Fill-328" fill="#184657"></path>
            <path d="M218.177163,37.6876459 C218.177163,37.6876459 216.594187,46.1525235 216.378539,53.0586234 C216.378539,53.0586234 222.205706,58.1903121 227.601577,57.7586566 C232.997447,57.3270011 235.467494,53.4421013 235.467494,53.4421013 L233.429132,35.889146 L218.177163,37.6876459 Z" id="Fill-329" fill="#FCC14A"></path>
            <path d="M220.083532,38.3349349 C220.371452,41.0324906 221.450859,48.8380347 222.062057,50.492779 C222.673644,52.1471347 226.307026,59.9884235 226.307026,59.9884235 C226.307026,59.9884235 219.903631,52.0033791 219.292045,49.3058234 C218.680847,46.6078793 220.083532,38.3349349 220.083532,38.3349349" id="Fill-330" fill="#DEAA41"></path>
            <path d="M232.170096,37.5797126 C232.170096,37.5797126 235.479812,43.0832234 235.335269,45.9245348 C235.191503,48.7662346 234.076349,54.0537234 233.213367,56.212001 C232.349997,58.3698901 229.759886,61.103579 229.759886,61.103579 C229.759886,61.103579 231.702663,54.6652678 232.42188,49.1978901 C233.141485,43.7305125 232.170096,37.5797126 232.170096,37.5797126" id="Fill-331" fill="#DEAA41"></path>
            <path d="M214.570124,44.170094 C215.140135,52.102687 221.301071,60.8387577 226.188711,63.6381079 C231.076351,66.4378466 228.686346,61.8368883 227.763527,61.3792013 C226.840707,60.9215144 224.156566,57.5370397 221.846215,52.6509012 C219.535864,47.7643742 219.687789,44.090057 219.687789,44.090057 L214.570124,44.170094 Z" id="Fill-332" fill="#FFD1C4"></path>
            <path d="M234.292347,44.593707 C234.364618,48.9817515 232.925409,58.4059068 229.112514,61.7868846 C225.29923,65.168251 230.407569,64.7365955 232.493724,62.6501957 C234.580267,60.5641844 238.60881,54.4491292 238.897118,44.5218291 L234.292347,44.593707 Z" id="Fill-333" fill="#FFD1C4"></path>
            <path d="M215.730856,34.5223404 C216.819977,31.6992899 222.278016,29.3424741 226.738245,29.2705963 C231.198862,29.1987184 236.52285,31.4288739 237.529986,35.0258738 C238.537122,38.6228736 239.328221,42.3636292 239.400492,44.8816845 C239.400492,44.8816845 236.52285,45.8164849 234.004622,45.2410737 C233.998405,43.2968754 232.917055,38.7895525 232.062233,37.4716627 L220.551276,37.4716627 C220.079958,39.2013931 220.029446,43.5975968 220.11959,45.0254402 C220.11959,45.0254402 217.025911,45.8164849 214.363918,45.1691959 C214.363918,45.1691959 213.788467,39.5580625 215.730856,34.5223404" id="Fill-334" fill="#FCC14A"></path>
            <path d="M224.364093,26.9686018 C224.316301,27.9519683 224.268509,29.3666017 223.860525,30.3977572 C223.860525,30.3977572 226.210898,32.7957572 227.09797,32.7957572 C227.985431,32.7957572 229.975612,30.2780904 229.975612,30.2780904 C229.975612,30.2780904 229.566851,30.0496354 229.495357,29.2045852 C229.424252,28.359535 229.496134,27.2087126 229.496134,27.2087126 L224.364093,26.9686018 Z" id="Fill-335" fill="#FFD1C4"></path>
            <path d="M229.472238,28.8630295 C229.399967,26.8725963 229.739176,24.9241243 229.739176,24.9241243 L224.494842,24.9124684 C224.494842,24.9124684 224.426456,26.599072 224.292405,28.4554628 C224.843765,29.2705963 225.683045,30.2298739 226.930308,30.2539627 C228.272767,30.2796056 228.96867,29.5107071 229.472238,28.8630295" id="Fill-336" fill="#F4B6A5"></path>
            <path d="M230.767294,24.0191241 C230.767294,26.6813236 229.160228,28.8155124 227.026281,28.8392127 C224.867855,28.862913 223.28488,26.6813236 223.28488,24.0191241 C223.28488,21.3573131 224.959943,19.199424 227.026281,19.199424 C229.092231,19.199424 230.767294,21.3573131 230.767294,24.0191241" id="Fill-337" fill="#FFD1C4"></path>
            <path d="M225.205316,25.3249306 C225.146644,25.418566 225.022306,25.4469287 224.928664,25.3878723 C224.835022,25.3288159 224.807046,25.2048752 224.866107,25.1112397 C224.924779,25.0176043 225.049117,24.9896302 225.142758,25.0486866 C225.236012,25.1073545 225.264376,25.2312952 225.205316,25.3249306" id="Fill-338" fill="#000000"></path>
            <path d="M229.066198,25.4209361 C229.007526,25.5145715 228.883577,25.5425456 228.789935,25.4838777 C228.696293,25.4248214 228.668317,25.3008807 228.726989,25.2072452 C228.785661,25.1136098 228.909998,25.0852472 229.00364,25.1443035 C229.097282,25.2033599 229.125258,25.3273006 229.066198,25.4209361" id="Fill-339" fill="#000000"></path>
            <path d="M227.276356,25.4229953 L227.788472,26.7750756 C227.849475,26.9351495 227.720863,27.1029939 227.550676,27.0866757 L226.77473,27.0113011 L227.276356,25.4229953 Z" id="Fill-342" fill="#E3AC9D"></path>
            <path d="M223.580144,25.593948 C222.795261,25.6083235 222.147539,24.9839577 222.133163,24.199518 C222.118786,23.4146898 222.743584,22.7670122 223.528077,22.7526366 L223.580144,25.593948 Z" id="Fill-343" fill="#ED6D53"></path>
            <path d="M223.567982,24.9219874 C223.154559,24.9297579 222.813018,24.6002855 222.805247,24.1868908 C222.797865,23.7734961 223.126971,23.4323678 223.540394,23.4245973 L223.567982,24.9219874 Z" id="Fill-344" fill="#BD422A"></path>
            <path d="M223.980472,22.3646518 C224.748258,24.186852 225.94734,25.3621517 226.78662,25.5059073 C227.6259,25.649663 228.009404,25.1943072 228.009404,25.1943072 C228.009404,25.1943072 228.872775,26.2013739 229.639783,26.249163 C230.407569,26.2973405 230.43166,26.1772851 230.43166,26.1772851 C230.43166,26.1772851 230.911137,24.7144741 230.958929,23.8274628 C231.00711,22.940063 223.980472,22.3646518 223.980472,22.3646518" id="Fill-345" fill="#F4B6A5"></path>
            <path d="M230.52025,25.6419313 C231.304744,25.6563068 231.952466,25.031941 231.966842,24.2475013 C231.981219,23.4626731 231.35681,22.8149955 230.572317,22.80062 L230.52025,25.6419313 Z" id="Fill-346" fill="#ED6D53"></path>
            <path d="M230.532412,24.9699707 C230.945835,24.9777412 231.286987,24.6482688 231.294758,24.2348741 C231.30214,23.8214795 230.973422,23.4803511 230.559611,23.4725806 L230.532412,24.9699707 Z" id="Fill-347" fill="#BD422A"></path>
            <path d="M227.817458,23.7313408 C229.28037,24.7865851 230.452642,24.8083427 231.00711,24.0911185 C231.822688,23.0358742 231.84639,19.7745632 230.14374,18.4318076 C229.157975,17.6543614 228.585244,17.0171741 227.649602,16.9930853 C226.439252,16.962003 225.94734,17.2087188 224.45995,18.1202074 C222.973336,19.0313075 223.06931,21.8368742 223.045219,22.7961519 L223.429112,22.8921185 L223.524697,24.306752 C223.524697,24.306752 223.788914,24.6187406 223.812616,24.5468628 C223.836707,24.4749849 223.980472,22.3644963 223.980472,22.3644963 C223.980472,22.3644963 225.507884,24.1606651 226.522402,24.2348741 C227.505836,24.306752 227.817458,23.7313408 227.817458,23.7313408" id="Fill-348" fill="#0B3B4D"></path>
            <path d="M214.939329,100.202478 C214.939329,100.202478 215.754908,100.825678 217.193729,100.825678 C218.63255,100.825678 219.49592,100.202478 219.49592,100.202478 L219.399558,104.231134 L213.884013,104.0392 C214.380975,103.119164 214.881046,100.678037 214.939329,100.202478" id="Fill-349" fill="#D6B88D"></path>
            <path d="M214.219919,102.828078 C215.550722,102.396423 216.009994,102.205267 217.313598,102.144656 C218.860049,102.072778 219.399753,102.887912 219.399753,102.887912 L219.520982,104.400454 C219.55906,104.877568 219.182161,105.2863 218.703072,105.2863 L213.789011,105.2863 C213.43426,105.2863 213.201904,104.914867 213.357326,104.595884 L214.219919,102.828078 Z" id="Fill-350" fill="#FAF8DC"></path>
            <path d="M218.775188,104.746634 L213.860738,104.746634 C213.657135,104.746634 213.497439,104.623081 213.42439,104.458345 L213.357559,104.595884 C213.201748,104.914867 213.434104,105.2863 213.788855,105.2863 L218.702917,105.2863 C219.182006,105.2863 219.559293,104.877568 219.520826,104.400454 L219.511113,104.279233 C219.379392,104.553146 219.103129,104.746634 218.775188,104.746634" id="Fill-351" fill="#0D232B"></path>
            <path d="M239.655851,100.202478 C239.655851,100.202478 238.840661,100.825678 237.40184,100.825678 C235.963019,100.825678 235.09926,100.202478 235.09926,100.202478 L235.195622,104.231134 L240.711168,104.0392 C240.214205,103.119164 239.714134,100.678037 239.655851,100.202478" id="Fill-352" fill="#D6B88D"></path>
            <path d="M240.3753,102.828078 C239.044498,102.396423 238.585225,102.205267 237.28201,102.144656 C235.73517,102.072778 235.195467,102.887912 235.195467,102.887912 L235.074237,104.400454 C235.036547,104.877568 235.413058,105.2863 235.892147,105.2863 L240.806597,105.2863 C241.160959,105.2863 241.393316,104.914867 241.237893,104.595884 L240.3753,102.828078 Z" id="Fill-353" fill="#FAF8DC"></path>
            <path d="M235.82038,104.746634 L240.734442,104.746634 C240.938045,104.746634 241.09813,104.623081 241.171178,104.458345 L241.237621,104.595884 C241.393432,104.914867 241.161076,105.2863 240.806713,105.2863 L235.892263,105.2863 C235.413174,105.2863 235.036275,104.877568 235.074354,104.400454 L235.084068,104.279233 C235.215788,104.553146 235.49244,104.746634 235.82038,104.746634" id="Fill-354" fill="#0D232B"></path>
            <path d="M222.541574,46.6706655 C224.464146,47.1027096 229.387533,47.0393794 231.414627,46.6683343 L231.414627,37.5126525 C229.360723,37.9287669 224.408583,37.7585913 222.541574,37.5064361 L222.541574,46.6706655 Z M226.730979,47.1139769 C225.031826,47.1139769 223.373082,47.0160676 222.452983,46.7977144 L222.397808,46.7845045 L222.397808,37.3409228 L222.479793,37.3525786 C224.296679,37.6132815 229.458639,37.7966671 231.470968,37.3537442 L231.558393,37.3343178 L231.558393,46.7872242 L231.500498,46.7984915 C230.450621,46.9993609 228.567292,47.1139769 226.730979,47.1139769 L226.730979,47.1139769 Z" id="Fill-355" fill="#035E80"></path>
            <path d="M236.618396,191.277015 C236.467636,191.277015 236.340967,191.15968 236.331642,191.007376 L228.273389,62.6685342 C228.263675,62.5100145 228.384516,62.3732523 228.543047,62.3624286 C228.703909,62.3518832 228.838349,62.4738813 228.848063,62.6324011 L236.905927,190.971243 C236.916029,191.129763 236.795189,191.266525 236.636658,191.277015 C236.630441,191.277015 236.624613,191.277015 236.618396,191.277015" id="Fill-356" fill="#035E80"></path>
        </g>
    </g>
</svg>